<svg width="618" height="442" viewBox="0 0 618 442" fill="none" xmlns="http://www.w3.org/2000/svg">
<g clip-path="url(#clip0_6_3)">
<path d="M481.05 200.44C479.895 197.468 481.545 195.982 482.206 193.34C482.866 190.698 480.72 182.442 480.72 182.442C480.72 182.442 473.786 153.876 471.64 148.261C470.732 145.886 468.759 144.251 466.786 143.154C466.652 142.425 466.459 141.955 466.192 141.822C464.28 140.865 459.516 138.787 456.341 138.212C455.748 137.192 455.044 136.24 454.242 135.373C454.799 134.303 455.058 133.102 454.99 131.897C454.788 128.782 452.429 125.99 452.736 122.884C452.969 120.527 454.691 118.592 455.355 116.32C455.634 115.299 455.7 114.232 455.549 113.185C455.398 112.138 455.034 111.133 454.478 110.232C454.967 110.752 455.455 111.272 455.943 111.791C456.608 110.795 456.927 109.609 456.854 108.414C456.78 107.22 456.317 106.082 455.535 105.175C453.988 103.467 451.403 102.826 450.203 100.858C448.97 98.8367 449.632 96.0894 448.466 94.0282C445.61 88.9788 438.299 92.5582 433.92 90.7959C432.121 90.0716 430.753 89.2745 428.728 89.3318C427.007 89.4305 425.305 89.7484 423.664 90.2778C421.31 90.9591 419.261 92.4281 417.859 94.4391C417.998 94.2817 418.149 94.1366 418.313 94.0056C419.374 93.1739 421.235 93.2432 421.795 94.4695C421.929 94.7778 421.985 95.1142 421.959 95.4492C421.867 96.9276 420.575 98.0317 419.292 98.7716C418.009 99.5114 416.566 100.13 415.728 101.352C414.346 103.369 415.159 106.074 415.159 108.519C415.148 110.073 414.789 111.604 414.107 113C413.426 114.396 412.44 115.622 411.223 116.587L415.881 114.682C413.657 118.576 412.197 122.859 411.579 127.3L417.878 122.096C415.545 125.809 414.127 130.024 413.741 134.393L418.797 129.211C419.027 129.616 419.142 130.076 419.13 130.541L418.603 132.575C418.417 132.979 418.21 133.373 417.984 133.756C417.171 135.153 416.33 136.873 417.091 138.3L417.094 138.298C416.293 140.993 415.085 143.69 412.397 145C415.379 145.312 418.49 143.821 419.836 141.448C420.056 141.875 420.321 142.277 420.627 142.647C420.714 142.756 420.799 142.863 420.885 142.971L420.142 143.466L418.151 144.794C418.151 144.794 405.109 147.436 405.934 152.389C405.968 152.593 406.009 152.836 406.055 153.109L402.302 159.49L396.854 177.983C396.854 177.983 394.048 183.928 394.543 186.405C395.038 188.881 394.543 189.872 394.543 194.33C394.543 198.789 392.397 200.605 394.543 204.238C396.689 207.87 403.128 218.438 403.128 218.438L404.542 219.499C404.473 220.136 404.497 220.78 404.613 221.41C405.934 228.015 418.316 291.257 418.316 291.257C418.316 291.257 412.042 341.289 424.754 344.427C426.349 344.82 427.914 345.177 429.435 345.495L431.358 358.132L430.202 374.149C430.202 374.149 421.453 393.963 437.466 395.119C453.48 396.275 446.216 377.946 446.216 377.946C447.061 376.381 447.407 374.595 447.207 372.828C447.043 371.358 445.669 363.709 444.321 356.352C450.398 355.623 449.261 349.172 448.451 346.335C448.802 346.131 449.064 345.804 449.188 345.417C449.371 344.759 448.945 342.167 448.172 338.536C447.542 334.927 446.467 329.083 445.733 325.125L449.683 325.768L466.357 228.015C466.357 228.015 466.467 226.459 466.417 224.183C468.697 223.004 471.048 221.968 473.456 221.08C478.904 218.934 481.05 211.008 482.866 207.705C484.682 204.403 482.206 203.412 481.05 200.44ZM421.848 138.201C422.388 137.829 423.02 137.614 423.674 137.581C423.533 138.349 422.213 138.574 421.105 138.976C421.308 138.678 421.559 138.417 421.848 138.201V138.201ZM413.528 187.395C414.866 189.593 412.444 195.549 410.262 200.275C409.011 199.197 407.706 199.537 409.236 196.477C410.279 194.538 410.898 192.399 411.052 190.202C411.052 189.825 411.245 187.051 412.872 185.898C413.043 186.417 413.263 186.918 413.528 187.395V187.395ZM408.518 206.365C409.275 206.056 410.421 205.583 411.969 205.057C411.227 206.03 410.381 207.19 409.529 208.456C409.207 208.212 408.948 207.895 408.772 207.532C408.597 207.168 408.509 206.768 408.518 206.365V206.365ZM462.065 208.531C461.061 207.464 460.25 206.51 459.582 205.657C460.828 205.984 462.095 206.337 463.386 206.715C464.028 206.811 464.685 206.767 465.309 206.586C465.366 207.728 465.367 209.357 465.367 209.357L463.558 210.609C463.146 209.858 462.645 209.161 462.065 208.531V208.531ZM467.188 202.804C467.169 202.821 467.148 202.84 467.128 202.858C467.039 202.205 466.892 201.562 466.687 200.935C465.605 197.522 465.027 191.467 464.72 186.3L467.843 196.807C467.843 196.807 468.008 202.091 467.188 202.804V202.804Z" fill="#D0CDE1"/>
<path d="M57.9705 221.917C58.8958 219.566 57.5739 218.39 57.0451 216.299C56.5164 214.209 58.2349 207.676 58.2349 207.676C58.2349 207.676 63.7867 185.073 65.5051 180.631C66.2323 178.751 67.8116 177.458 69.3917 176.589C69.4988 176.013 69.6536 175.641 69.8672 175.535C71.3983 174.778 75.2127 173.134 77.7547 172.679C78.23 171.872 78.7937 171.119 79.4355 170.433C78.9894 169.586 78.7825 168.636 78.8366 167.683C78.9986 165.218 80.8873 163.009 80.6416 160.55C80.4552 158.686 79.0763 157.155 78.5441 155.357C78.321 154.549 78.2682 153.705 78.3891 152.876C78.5099 152.048 78.8017 151.252 79.2465 150.54C78.8554 150.951 78.4644 151.362 78.0734 151.774C77.5414 150.986 77.2854 150.047 77.3445 149.102C77.4036 148.156 77.7745 147.256 78.4005 146.539C79.6386 145.187 81.709 144.68 82.6696 143.123C83.6566 141.523 83.1269 139.349 84.0603 137.718C86.3469 133.723 92.2007 136.555 95.7069 135.161C97.1478 134.588 98.2431 133.957 99.8642 134.002C101.243 134.08 102.605 134.332 103.919 134.751C105.804 135.29 107.445 136.452 108.567 138.044C108.456 137.919 108.335 137.804 108.204 137.701C107.354 137.042 105.864 137.097 105.416 138.068C105.308 138.312 105.263 138.578 105.285 138.843C105.358 140.013 106.392 140.886 107.42 141.472C108.447 142.057 109.603 142.547 110.273 143.514C111.38 145.109 110.729 147.25 110.729 149.184C110.738 150.414 111.026 151.625 111.571 152.73C112.117 153.835 109.754 153.297 110.729 154.061H110.151C111.932 157.142 109.656 154.985 110.151 158.5L108.552 159.927C110.42 162.866 108.258 160.043 108.567 163.5L107.816 165.557C107.632 165.877 107.54 166.241 107.549 166.61L107.971 168.219C106.984 167.683 104.868 165.139 106.984 167.683C107.635 168.788 107.593 168.024 106.984 169.153H106.351C106.992 171.286 103.816 169.396 105.968 170.433C103.581 170.68 108.062 177.118 106.984 175.24C106.808 175.578 106.596 175.896 106.351 176.188C106.281 176.274 106.213 176.359 106.145 176.445L106.739 176.837L108.334 177.887C108.334 177.887 118.776 179.977 118.115 183.897C118.088 184.058 118.056 184.251 118.019 184.467L121.023 189.515L125.386 204.148C125.386 204.148 127.633 208.852 127.236 210.812C126.84 212.772 127.236 213.556 127.236 217.083C127.236 220.611 128.955 222.048 127.236 224.922C125.518 227.797 120.363 236.159 120.363 236.159L119.23 236.998C119.285 237.502 119.266 238.012 119.173 238.51C118.115 243.737 108.201 293.777 108.201 293.777C108.201 293.777 113.224 333.365 103.046 335.848C101.77 336.159 100.516 336.442 99.2981 336.693L97.7586 346.692L98.684 359.365C98.684 359.365 105.69 375.044 92.8678 375.958C80.0457 376.873 85.8619 362.37 85.8619 362.37C85.1851 361.132 84.9083 359.719 85.0687 358.32C85.1995 357.157 86.3001 351.105 87.3794 345.284C82.5134 344.707 83.4239 339.602 84.0723 337.358C83.7916 337.196 83.5815 336.937 83.4825 336.632C83.3361 336.11 83.6771 334.06 84.2959 331.187C84.7999 328.331 85.6611 323.707 86.2487 320.575L83.0859 321.084L69.7351 243.737C69.7351 243.737 69.647 242.505 69.6872 240.704C67.8618 239.771 65.9795 238.951 64.0511 238.249C59.6889 236.551 57.9705 230.279 56.5165 227.666C55.0624 225.053 57.0452 224.269 57.9705 221.917ZM105.373 172.67C104.941 172.376 104.435 172.206 103.911 172.18C104.024 172.788 105.081 172.965 105.968 173.284C105.805 173.048 105.604 172.841 105.373 172.67ZM112.035 211.596C110.964 213.335 112.903 218.047 114.65 221.787C115.651 220.934 116.696 221.203 115.472 218.782C114.636 217.247 114.141 215.555 114.018 213.817C114.018 213.518 113.863 211.323 112.56 210.411C112.423 210.822 112.247 211.218 112.035 211.596ZM116.047 226.605C115.441 226.361 114.523 225.987 113.283 225.57C113.877 226.341 114.555 227.258 115.237 228.26C115.494 228.067 115.702 227.816 115.843 227.529C115.984 227.241 116.053 226.925 116.047 226.605ZM73.172 228.319C73.9756 227.475 74.625 226.721 75.1596 226.045C74.1625 226.304 73.1475 226.584 72.1144 226.882C71.5996 226.958 71.0743 226.924 70.5743 226.781C70.5284 227.684 70.5282 228.973 70.5282 228.973L71.976 229.963C72.3061 229.37 72.7077 228.818 73.172 228.319ZM69.0698 223.788C69.0852 223.801 69.1018 223.817 69.1177 223.831C69.1888 223.314 69.307 222.805 69.4707 222.309C70.337 219.609 70.7999 214.818 71.0462 210.729L68.5454 219.043C68.5454 219.043 68.4132 223.224 69.0698 223.788Z" fill="#D0CDE1"/>
<path d="M403.06 159.403C403.06 159.403 386.123 130.287 385.593 127.111C385.064 123.934 376.595 118.111 376.595 118.111C373.702 115.217 368.955 114.301 363.959 114.349C365.84 112.792 359.123 111.746 358.6 110.699C358.07 109.641 356.482 109.641 354.365 108.053C352.248 106.464 346.964 107.788 346.963 107.788C346.168 106.116 345.616 104.339 345.321 102.512C347.577 99.8427 348.812 96.4597 348.808 92.9649C348.808 92.9269 348.805 92.8895 348.805 92.8516C348.94 93.0613 349.074 93.2723 349.209 93.4897C350.201 87.5495 351.951 82.6118 348.615 77.1929C346.251 73.3523 342.549 70.5221 338.224 69.2472L335.046 71.7894L336.282 68.8242C335.243 68.6657 334.192 68.6049 333.141 68.6427L330.283 72.3188L331.466 68.7686C328.985 69.0769 326.596 69.8959 324.447 71.174C322.299 72.4521 320.439 74.1616 318.984 76.1946C315.346 81.4417 315.589 88.7355 319.168 94.0237C319.18 93.9867 319.189 93.9504 319.201 93.9135C319.359 96.3874 320.135 98.7821 321.458 100.878C322.781 102.975 324.609 104.706 326.774 105.912L327.672 113.105C326.863 113.856 325.826 114.314 324.725 114.405C323.137 114.405 321.55 118.64 321.55 118.64C321.55 118.64 320.65 119.095 319.68 121.239C317.181 122.94 309.56 128.284 306.732 132.019C305.059 132.842 303.262 134.674 303.554 138.757C304.083 146.169 303.554 180.579 303.554 180.579C303.554 180.579 298.79 209.695 300.378 211.813C301.966 213.93 299.849 220.812 299.849 220.812L301.437 221.165V222.93C301.437 222.93 296.661 245.074 304.083 244.106C316.257 242.517 307.259 224.518 307.259 224.518V222.459L309.376 222.93C309.376 222.93 310.435 215.519 312.552 214.989C313.288 214.805 314.152 212.826 314.967 210.325C315.442 214.227 315.727 216.577 315.727 216.577L319.039 215.841L319.962 219.224C320.189 219.352 320.427 219.46 320.673 219.547L319.962 223.459C319.962 223.459 319.432 227.694 319.962 230.341C320.229 231.676 330.054 260.21 339.728 288.168L339.545 294.927C339.545 294.927 334.782 300.221 335.84 303.927C336.899 307.632 333.194 338.337 333.194 338.337L330.018 353.689L330.817 353.935L330.084 356.625C329.452 356.944 328.89 357.386 328.43 357.924C324.196 362.689 318.903 376.453 318.903 376.453C318.903 376.453 309.376 390.746 324.196 390.217C339.016 389.688 340.075 384.394 340.075 384.394C340.075 384.394 342.192 370.63 342.192 370.1C342.192 369.571 341.133 364.129 341.133 364.129L340.722 363.675L341.009 357.072L343.78 357.924C343.78 357.924 346.426 344.16 348.543 342.572C349.283 342.017 351.252 335.834 353.499 327.892C355.797 334.508 358.022 357.386 358.744 359.462C358.488 359.812 358.262 360.183 358.07 360.571C355.691 365.138 353.04 369.557 350.131 373.806C350.131 373.806 333.194 383.864 350.131 386.511C350.131 386.511 359.658 387.041 364.422 383.864C369.185 380.688 381.888 375.923 381.888 374.865C381.888 373.806 378.713 358.242 375.537 359.936L373.41 355.042L375.537 354.218L362.137 294.059C362.454 292.777 362.687 291.475 362.834 290.162C362.834 287.39 369.687 233.409 371.431 219.718C379.107 221.893 386.123 205.99 386.123 205.99L387.863 202.857L390.357 204.401C390.357 204.401 392.474 199.108 395.65 198.578C398.825 198.049 404.648 169.991 404.648 166.285C404.599 163.906 404.058 161.563 403.06 159.403V159.403ZM378.399 200.88C377.878 200.053 377.274 199.282 376.595 198.578C377.979 194.973 379.042 191.253 379.771 187.461C380.83 181.638 378.183 162.58 378.183 162.58L378.137 161.285C380.735 164.696 384.005 169.243 384.005 170.52C384.005 171.137 384.149 171.745 384.424 172.296C384.7 172.847 385.1 173.327 385.593 173.697L382.418 184.814C382.418 184.814 380.3 190.108 379.771 192.755C379.454 194.324 379.277 195.919 379.242 197.519L379.992 197.984L378.399 200.88Z" fill="#D0CDE1"/>
<path d="M205.951 169.202L208.775 168.566L197.131 135.744L171.99 126.48C171.99 126.48 171.893 126.587 171.716 126.771C169.571 124.695 168.661 121.683 168.281 119.312C170.302 118.495 172.119 117.242 173.601 115.642C175.083 114.042 176.193 112.134 176.853 110.056C177.512 107.977 177.705 105.778 177.418 103.616C177.13 101.455 176.368 99.3829 175.188 97.5493C177.26 97.0519 177.999 95.1722 178.695 92.9306C178.264 92.8036 177.825 92.7079 177.381 92.6445C177.706 91.9138 178.032 91.1831 178.358 90.4524C177.785 90.4009 177.213 90.3495 176.64 90.2981C176.787 89.615 176.933 88.9319 177.079 88.2489C176.349 88.753 175.619 89.2572 174.889 89.7614C175.137 89.0443 175.199 88.2759 175.068 87.5284C174.938 86.7809 174.619 86.0789 174.143 85.4882C173.173 84.3163 171.909 83.4244 170.479 82.9044C167.684 81.8045 164.64 81.4962 161.681 82.0135C158.722 82.5307 155.962 83.8535 153.706 85.8366L153.548 85.2197C149.079 88.6554 146.155 93.7233 145.417 99.3121C144.716 104.837 147.369 110.462 150.818 114.833C150.789 114.642 150.758 114.452 150.726 114.262C150.875 114.467 151.029 114.669 151.188 114.866L151.612 130.98L150.55 131.89C150.549 131.891 132.736 139.951 132.041 149.579L132.039 149.586C130.97 154.273 130.441 178.625 130.441 178.625H131.906L130.441 188.154L120.914 225.211C120.914 225.211 108.74 241.093 119.326 244.269C125.904 246.243 127.78 238.609 128.259 232.546C128.64 234.049 129.78 235.065 132.029 235.269C132.205 235.285 132.394 235.299 132.577 235.314C127.572 248.251 130.97 290.326 130.97 290.326C128.324 295.62 159.551 332.147 159.551 332.147L161.432 331.144L161.839 331.958C160.792 332.059 160.081 332.147 160.081 332.147V348.558C160.081 348.558 155.317 364.97 161.669 368.146C163.312 368.968 165.026 368.37 166.665 367.035C166.352 372.099 165.903 379.657 165.903 381.381C165.903 384.028 172.784 388.792 172.784 388.792C172.784 388.792 174.371 394.615 187.074 394.615C199.777 394.615 190.25 379.263 190.25 379.263L183.369 363.911C183.369 363.911 182.854 364.163 181.296 362.894L181.854 356.755L184.957 357.029L189.191 295.09C189.191 295.09 192.896 240.034 193.426 231.564C193.55 228.848 193.486 226.127 193.234 223.42L208.775 191.33L205.951 169.202ZM194.484 189.742L192.896 195.276V183.036L194.484 189.742ZM128.407 229.001C128.42 227.061 128.324 225.74 128.324 225.74L138.671 205.041L138.38 211.447C138.38 211.447 130.093 221.931 128.407 229.001ZM152.671 288.738L162.727 253.268L168.549 296.149L168.132 311.738C167.423 310.306 166.854 308.808 166.432 307.266C164.844 300.913 152.671 288.738 152.671 288.738Z" fill="#D0CDE1"/>
<path d="M245.716 386.585C375.227 386.585 480.216 384.854 480.216 382.719C480.216 380.584 375.227 378.853 245.716 378.853C116.205 378.853 11.2154 380.584 11.2154 382.719C11.2154 384.854 116.205 386.585 245.716 386.585Z" fill="#3F3D56"/>
<path d="M327.789 402.694C470.251 402.694 585.738 398.223 585.738 392.707C585.738 387.191 470.251 382.719 327.789 382.719C185.328 382.719 69.8405 387.191 69.8405 392.707C69.8405 398.223 185.328 402.694 327.789 402.694Z" fill="#3F3D56"/>
<path d="M280.182 417.514C350.097 417.514 406.774 413.043 406.774 407.527C406.774 402.011 350.097 397.539 280.182 397.539C210.268 397.539 153.591 402.011 153.591 407.527C153.591 413.043 210.268 417.514 280.182 417.514Z" fill="#3F3D56"/>
<path d="M463.144 424.602C494.276 424.602 519.514 422.294 519.514 419.448C519.514 416.601 494.276 414.293 463.144 414.293C432.011 414.293 406.774 416.601 406.774 419.448C406.774 422.294 432.011 424.602 463.144 424.602Z" fill="#3F3D56"/>
<path d="M385.836 442C400.602 442 412.572 439.692 412.572 436.845C412.572 433.998 400.602 431.69 385.836 431.69C371.07 431.69 359.101 433.998 359.101 436.845C359.101 439.692 371.07 442 385.836 442Z" fill="#3F3D56"/>
<path d="M168.086 420.092C182.852 420.092 194.821 417.784 194.821 414.937C194.821 412.09 182.852 409.782 168.086 409.782C153.32 409.782 141.35 412.09 141.35 414.937C141.35 417.784 153.32 420.092 168.086 420.092Z" fill="#3F3D56"/>
<path d="M300.153 356.622L302.73 374.664L315.615 373.376L314.326 354.689L300.153 356.622Z" fill="#FFB8B8"/>
<path d="M238.951 356.622L236.374 374.664L223.49 373.376L224.778 354.689L238.951 356.622Z" fill="#FFB8B8"/>
<path d="M220.39 169.451C220.39 169.451 208.797 183.941 211.374 206.71C213.95 229.48 218.458 281.23 218.458 281.23L221.679 373L242.289 371.62L245.509 293.65L255.814 230.86L283.509 304C283.509 304 297.034 372.31 297.678 372.31C298.322 372.31 317 370.24 317 370.24L307.983 289.51C307.983 289.51 293.814 172.211 285.441 170.141C277.068 168.071 220.39 169.451 220.39 169.451Z" fill="#2F2E41"/>
<path d="M316.903 370.799C316.903 370.799 305.307 363.066 300.798 372.087C296.288 381.108 300.153 387.552 300.153 387.552C300.153 387.552 304.019 390.129 302.086 392.707C300.153 395.284 299.509 412.037 316.259 409.46C333.009 406.883 324.634 389.485 324.634 389.485L316.903 370.799Z" fill="#2F2E41"/>
<path d="M222.201 370.799C222.201 370.799 233.797 363.066 238.307 372.087C242.817 381.108 238.951 387.552 238.951 387.552C238.951 387.552 235.086 390.129 237.019 392.707C238.951 395.284 239.596 412.037 222.846 409.46C206.096 406.883 214.471 389.485 214.471 389.485L222.201 370.799Z" fill="#2F2E41"/>
<path d="M236.052 44.4319C236.052 44.4319 241.85 60.5408 237.341 69.5618C232.831 78.5828 244.427 88.8925 244.427 88.8925C244.427 88.8925 274.706 73.4279 270.841 65.6957C266.975 57.9634 260.533 47.6537 261.822 41.2101L236.052 44.4319Z" fill="#FFB8B8"/>
<path d="M247.326 50.5533C258.712 50.5533 267.942 41.3216 267.942 29.9338C267.942 18.546 258.712 9.31442 247.326 9.31442C235.941 9.31442 226.711 18.546 226.711 29.9338C226.711 41.3216 235.941 50.5533 247.326 50.5533Z" fill="#FFB8B8"/>
<path d="M232.509 68.5953C232.509 68.5953 253.194 85.8114 268.621 61.4166L284.692 70.5283L293.067 168.471C293.067 168.471 246.038 195.534 223.49 172.337L226.711 81.4824L232.509 68.5953Z" fill="#CFA772"/>
<path d="M239.005 58.9509L209.961 78.2604L220.269 125.943L206.74 200.044L228.644 167.182L239.005 58.9509Z" fill="#575A89"/>
<path d="M264.674 53.5763L271.807 58.2856L300.798 68.5953L296.288 148.495L308.528 200.044L291.134 209.065C291.134 209.065 287.913 184.579 267.942 172.337C247.971 160.094 260.117 57.2437 264.674 53.5763Z" fill="#575A89"/>
<path d="M216.403 178.78L224.778 184.579C224.778 184.579 214.148 195.856 212.216 193.923C211.656 193.386 211.222 192.732 210.944 192.008C210.665 191.284 210.55 190.508 210.605 189.734L208.672 185.224L216.403 178.78Z" fill="#FFB8B8"/>
<path d="M272.077 177.527L269.23 182.002C269.23 182.002 260.855 185.868 262.788 188.446C264.721 191.023 280.826 196.822 284.048 191.023L287.269 185.224L272.077 177.527Z" fill="#FFB8B8"/>
<path d="M213.826 77.6163L209.317 78.2606L201.908 126.265C201.908 126.265 199.009 134.964 202.23 155.583C205.451 176.203 208.641 189.63 208.641 189.63L222.846 179.425L216.403 162.671L224.778 101.457L213.826 77.6163Z" fill="#575A89"/>
<path d="M290.49 67.3065L300.798 68.5953C300.798 68.5953 312.394 80.838 314.326 93.7252C316.259 106.612 315.615 143.341 315.615 143.341L285.98 190.379L269.874 178.78L292.423 138.83L281.471 91.1477L290.49 67.3065Z" fill="#575A89"/>
<path d="M266.985 11.2847C263.868 6.2214 258.988 2.49029 253.285 0.809497L249.097 4.16099L250.725 0.25185C249.356 0.0428955 247.97 -0.0372256 246.586 0.0125362L242.817 4.85891L244.377 0.178541C241.106 0.585008 237.956 1.66477 235.124 3.34975C232.292 5.03472 229.839 7.28835 227.921 9.96853C223.125 16.8861 222.315 26.5062 227.033 33.4778C228.328 29.4972 229.9 25.7621 231.195 21.7815C232.213 21.9203 233.244 21.9253 234.263 21.7965L235.839 18.1194L236.279 21.6409C241.163 21.2153 248.406 20.2811 253.036 19.4251L252.586 16.7235L255.279 18.9685C256.698 18.6419 257.54 18.3457 257.47 18.1194C260.914 23.6714 264.325 27.2176 267.768 32.7696C269.076 24.9383 271.383 18.4287 266.985 11.2847Z" fill="#2F2E41"/>
<path d="M265.844 32.0777C266.614 32.0777 267.239 30.8279 267.239 29.2861C267.239 27.7443 266.614 26.4944 265.844 26.4944C265.073 26.4944 264.448 27.7443 264.448 29.2861C264.448 30.8279 265.073 32.0777 265.844 32.0777Z" fill="#FFB8B8"/>
<path d="M488.828 393.725C489.422 414.06 477.543 421.512 462.635 421.947C462.288 421.958 461.944 421.964 461.6 421.966C460.909 421.971 460.224 421.96 459.546 421.931C446.064 421.372 435.391 414.213 434.839 395.302C434.268 375.731 458.554 350.303 460.377 348.422L460.38 348.42C460.449 348.348 460.485 348.312 460.485 348.312C460.485 348.312 488.234 373.392 488.828 393.725Z" fill="#244e8a"/>
<path d="M461.561 418.866L471.031 404.78L461.581 420.381L461.6 421.966C460.909 421.971 460.224 421.96 459.546 421.931L460.016 401.557L460.003 401.4L460.021 401.37L460.066 399.445L449.695 384.384L460.053 398.004L460.09 398.411L460.445 383.017L451.487 367.403L460.47 380.313L460.377 348.422L460.377 348.316L460.38 348.42L460.974 373.555L469.138 363.345L461.001 375.72L461.179 389.489L468.692 376.051L461.207 391.513L461.306 399.17L472.231 380.45L461.339 401.84L461.561 418.866Z" fill="#3F3D56"/>
<path d="M143.52 363.44C144.114 383.775 132.234 391.227 117.326 391.663C116.98 391.673 116.635 391.679 116.292 391.681C115.601 391.687 114.916 391.675 114.238 391.647C100.755 391.087 90.083 383.928 89.5309 365.017C88.9594 345.446 113.246 320.018 115.068 318.137L115.072 318.135C115.141 318.063 115.176 318.028 115.176 318.028C115.176 318.028 142.926 343.107 143.52 363.44Z" fill="#244e8a"/>
<path d="M116.253 388.581L125.723 374.495L116.272 390.096L116.292 391.681C115.601 391.687 114.916 391.675 114.238 391.647L114.708 371.273L114.695 371.115L114.712 371.085L114.757 369.16L104.387 354.1L114.745 367.719L114.782 368.126L115.137 352.732L106.179 337.118L115.162 350.028L115.068 318.137L115.069 318.031L115.072 318.135L115.666 343.27L123.83 333.06L115.693 345.435L115.871 359.204L123.384 345.766L115.899 361.228L115.998 368.885L126.923 350.166L116.031 371.556L116.253 388.581Z" fill="#3F3D56"/>
<path d="M401.546 422.393C401.895 434.329 394.922 438.703 386.171 438.959C385.968 438.965 385.766 438.968 385.564 438.97C385.158 438.973 384.756 438.966 384.359 438.949C376.444 438.621 370.18 434.419 369.856 423.319C369.52 411.831 383.776 396.905 384.846 395.801L384.848 395.8C384.888 395.758 384.909 395.737 384.909 395.737C384.909 395.737 401.198 410.458 401.546 422.393Z" fill="#CFA772"/>
<path d="M385.541 437.15L391.1 428.882L385.553 438.039L385.564 438.97C385.158 438.973 384.756 438.966 384.359 438.949L384.634 426.99L384.627 426.898L384.637 426.88L384.663 425.75L378.576 416.91L384.656 424.904L384.678 425.143L384.886 416.108L379.628 406.943L384.901 414.52L384.846 395.801L384.846 395.739L384.848 395.8L385.197 410.553L389.989 404.56L385.213 411.824L385.317 419.906L389.727 412.019L385.333 421.095L385.392 425.589L391.804 414.601L385.411 427.156L385.541 437.15Z" fill="#3F3D56"/>
<path d="M617.943 32.9827C617.962 32.924 617.981 32.8644 618 32.8055C617.992 32.8313 617.982 32.8562 617.974 32.8821L617.943 32.9827Z" fill="#2F2E41"/>
<path d="M527.917 374.892L575.634 303.918L528.014 382.527L528.114 390.514C524.63 390.54 521.181 390.482 517.765 390.34L520.131 287.681L520.067 286.889L520.154 286.736L520.381 277.035L468.125 201.152L520.319 269.775L520.504 271.825L522.292 194.263L477.157 115.589L522.42 180.637L521.948 19.9473L521.949 19.4124L521.964 19.9384L524.96 146.584L566.095 95.1403L525.095 157.494L525.993 226.872L563.845 159.162L526.132 237.072L526.632 275.649L581.68 181.33L526.799 289.107L527.917 374.892Z" fill="#3F3D56"/>
</g>
<defs>
<clipPath id="clip0_6_3">
<rect width="618" height="442" fill="white"/>
</clipPath>
</defs>
</svg>
