<svg width="642" height="303" viewBox="0 0 642 303" fill="none" xmlns="http://www.w3.org/2000/svg">
<path d="M9.29785 287.372H4.28809V296H1.46094V274.672H8.52148C10.9238 274.672 12.7695 275.219 14.0586 276.312C15.3574 277.406 16.0068 278.998 16.0068 281.088C16.0068 282.416 15.6455 283.573 14.9229 284.56C14.21 285.546 13.2139 286.283 11.9346 286.771L16.9443 295.824V296H13.9268L9.29785 287.372ZM4.28809 285.072H8.60938C10.0059 285.072 11.1143 284.711 11.9346 283.988C12.7646 283.266 13.1797 282.299 13.1797 281.088C13.1797 279.77 12.7842 278.759 11.9932 278.056C11.2119 277.353 10.0791 276.996 8.59473 276.986H4.28809V285.072ZM26.1143 296.293C23.9658 296.293 22.2178 295.59 20.8701 294.184C19.5225 292.768 18.8486 290.878 18.8486 288.515V288.017C18.8486 286.444 19.1465 285.043 19.7422 283.812C20.3477 282.572 21.1875 281.605 22.2617 280.912C23.3457 280.209 24.5176 279.857 25.7773 279.857C27.8379 279.857 29.4395 280.536 30.582 281.894C31.7246 283.251 32.2959 285.194 32.2959 287.724V288.852H21.5586C21.5977 290.414 22.0518 291.679 22.9209 292.646C23.7998 293.603 24.9131 294.081 26.2607 294.081C27.2178 294.081 28.0283 293.886 28.6924 293.495C29.3564 293.104 29.9375 292.587 30.4355 291.942L32.0908 293.231C30.7627 295.272 28.7705 296.293 26.1143 296.293ZM25.7773 282.084C24.6836 282.084 23.7656 282.484 23.0234 283.285C22.2812 284.076 21.8223 285.189 21.6465 286.625H29.5859V286.42C29.5078 285.043 29.1367 283.979 28.4727 283.227C27.8086 282.465 26.9102 282.084 25.7773 282.084ZM34.8008 287.943C34.8008 285.473 35.3721 283.51 36.5146 282.055C37.6572 280.59 39.1709 279.857 41.0557 279.857C42.9893 279.857 44.498 280.541 45.582 281.908L45.7139 280.15H48.1895V295.619C48.1895 297.67 47.5791 299.286 46.3584 300.468C45.1475 301.649 43.5166 302.24 41.4658 302.24C40.3232 302.24 39.2051 301.996 38.1113 301.508C37.0176 301.02 36.1826 300.351 35.6064 299.501L37.0127 297.875C38.1748 299.311 39.5957 300.028 41.2754 300.028C42.5938 300.028 43.6191 299.657 44.3516 298.915C45.0938 298.173 45.4648 297.128 45.4648 295.78V294.418C44.3809 295.668 42.9014 296.293 41.0264 296.293C39.1709 296.293 37.667 295.546 36.5146 294.052C35.3721 292.558 34.8008 290.521 34.8008 287.943ZM37.5254 288.251C37.5254 290.038 37.8916 291.444 38.624 292.47C39.3564 293.485 40.3818 293.993 41.7002 293.993C43.4092 293.993 44.6641 293.217 45.4648 291.664V284.428C44.6348 282.914 43.3896 282.157 41.7295 282.157C40.4111 282.157 39.3809 282.67 38.6387 283.695C37.8965 284.721 37.5254 286.239 37.5254 288.251ZM55.2354 296H52.5254V280.15H55.2354V296ZM52.3057 275.946C52.3057 275.507 52.4375 275.136 52.7012 274.833C52.9746 274.53 53.375 274.379 53.9023 274.379C54.4297 274.379 54.8301 274.53 55.1035 274.833C55.377 275.136 55.5137 275.507 55.5137 275.946C55.5137 276.386 55.377 276.752 55.1035 277.045C54.8301 277.338 54.4297 277.484 53.9023 277.484C53.375 277.484 52.9746 277.338 52.7012 277.045C52.4375 276.752 52.3057 276.386 52.3057 275.946ZM68.8145 291.796C68.8145 291.063 68.5361 290.497 67.9795 290.097C67.4326 289.687 66.4707 289.335 65.0938 289.042C63.7266 288.749 62.6377 288.397 61.8271 287.987C61.0264 287.577 60.4307 287.089 60.04 286.522C59.6592 285.956 59.4688 285.282 59.4688 284.501C59.4688 283.202 60.0156 282.104 61.1094 281.205C62.2129 280.307 63.6191 279.857 65.3281 279.857C67.125 279.857 68.5801 280.321 69.6934 281.249C70.8164 282.177 71.3779 283.363 71.3779 284.809H68.6533C68.6533 284.066 68.3359 283.427 67.7012 282.89C67.0762 282.353 66.2852 282.084 65.3281 282.084C64.3418 282.084 63.5703 282.299 63.0137 282.729C62.457 283.158 62.1787 283.72 62.1787 284.413C62.1787 285.067 62.4375 285.561 62.9551 285.893C63.4727 286.225 64.4053 286.542 65.7529 286.845C67.1104 287.147 68.209 287.509 69.0488 287.929C69.8887 288.349 70.5088 288.856 70.9092 289.452C71.3193 290.038 71.5244 290.756 71.5244 291.605C71.5244 293.021 70.958 294.159 69.8252 295.019C68.6924 295.868 67.2227 296.293 65.416 296.293C64.1465 296.293 63.0234 296.068 62.0469 295.619C61.0703 295.17 60.3037 294.545 59.7471 293.744C59.2002 292.934 58.9268 292.06 58.9268 291.122H61.6367C61.6855 292.03 62.0469 292.753 62.7207 293.29C63.4043 293.817 64.3027 294.081 65.416 294.081C66.4414 294.081 67.2617 293.876 67.877 293.466C68.502 293.046 68.8145 292.489 68.8145 291.796ZM78.7314 276.312V280.15H81.6904V282.245H78.7314V292.074C78.7314 292.709 78.8633 293.188 79.127 293.51C79.3906 293.822 79.8398 293.979 80.4746 293.979C80.7871 293.979 81.2168 293.92 81.7637 293.803V296C81.0508 296.195 80.3574 296.293 79.6836 296.293C78.4727 296.293 77.5596 295.927 76.9443 295.194C76.3291 294.462 76.0215 293.422 76.0215 292.074V282.245H73.1357V280.15H76.0215V276.312H78.7314ZM92.5303 282.582C92.1201 282.514 91.6758 282.479 91.1973 282.479C89.4199 282.479 88.2139 283.236 87.5791 284.75V296H84.8691V280.15H87.5059L87.5498 281.981C88.4385 280.565 89.6982 279.857 91.3291 279.857C91.8564 279.857 92.2568 279.926 92.5303 280.062V282.582ZM101.319 296.293C99.1709 296.293 97.4229 295.59 96.0752 294.184C94.7275 292.768 94.0537 290.878 94.0537 288.515V288.017C94.0537 286.444 94.3516 285.043 94.9473 283.812C95.5527 282.572 96.3926 281.605 97.4668 280.912C98.5508 280.209 99.7227 279.857 100.982 279.857C103.043 279.857 104.645 280.536 105.787 281.894C106.93 283.251 107.501 285.194 107.501 287.724V288.852H96.7637C96.8027 290.414 97.2568 291.679 98.126 292.646C99.0049 293.603 100.118 294.081 101.466 294.081C102.423 294.081 103.233 293.886 103.897 293.495C104.562 293.104 105.143 292.587 105.641 291.942L107.296 293.231C105.968 295.272 103.976 296.293 101.319 296.293ZM100.982 282.084C99.8887 282.084 98.9707 282.484 98.2285 283.285C97.4863 284.076 97.0273 285.189 96.8516 286.625H104.791V286.42C104.713 285.043 104.342 283.979 103.678 283.227C103.014 282.465 102.115 282.084 100.982 282.084ZM127.877 296C127.721 295.688 127.594 295.131 127.496 294.33C126.236 295.639 124.732 296.293 122.984 296.293C121.422 296.293 120.138 295.854 119.132 294.975C118.136 294.086 117.638 292.963 117.638 291.605C117.638 289.955 118.263 288.676 119.513 287.768C120.772 286.85 122.54 286.391 124.815 286.391H127.452V285.146C127.452 284.198 127.169 283.446 126.603 282.89C126.036 282.323 125.201 282.04 124.098 282.04C123.131 282.04 122.32 282.284 121.666 282.772C121.012 283.261 120.685 283.852 120.685 284.545H117.96C117.96 283.754 118.238 282.992 118.795 282.26C119.361 281.518 120.123 280.932 121.08 280.502C122.047 280.072 123.106 279.857 124.259 279.857C126.085 279.857 127.516 280.316 128.551 281.234C129.586 282.143 130.123 283.397 130.162 284.999V292.294C130.162 293.749 130.348 294.906 130.719 295.766V296H127.877ZM123.38 293.935C124.229 293.935 125.035 293.715 125.797 293.275C126.559 292.836 127.11 292.265 127.452 291.562V288.31H125.328C122.008 288.31 120.348 289.281 120.348 291.225C120.348 292.074 120.631 292.738 121.197 293.217C121.764 293.695 122.491 293.935 123.38 293.935ZM133.751 287.943C133.751 285.453 134.322 283.485 135.465 282.04C136.607 280.585 138.141 279.857 140.064 279.857C141.939 279.857 143.419 280.487 144.503 281.747L144.62 280.15H147.11V302.094H144.4V294.535C143.307 295.707 141.852 296.293 140.035 296.293C138.121 296.293 136.593 295.551 135.45 294.066C134.317 292.572 133.751 290.595 133.751 288.134V287.943ZM136.461 288.251C136.461 290.067 136.842 291.493 137.604 292.528C138.375 293.563 139.41 294.081 140.709 294.081C142.32 294.081 143.551 293.368 144.4 291.942V284.179C143.541 282.782 142.32 282.084 140.738 282.084C139.43 282.084 138.39 282.606 137.618 283.651C136.847 284.687 136.461 286.22 136.461 288.251ZM161.246 294.433C160.191 295.673 158.644 296.293 156.603 296.293C154.913 296.293 153.624 295.805 152.735 294.828C151.856 293.842 151.412 292.387 151.402 290.463V280.15H154.112V290.39C154.112 292.792 155.089 293.993 157.042 293.993C159.112 293.993 160.489 293.222 161.173 291.679V280.15H163.883V296H161.305L161.246 294.433ZM170.958 296H168.248V280.15H170.958V296ZM168.028 275.946C168.028 275.507 168.16 275.136 168.424 274.833C168.697 274.53 169.098 274.379 169.625 274.379C170.152 274.379 170.553 274.53 170.826 274.833C171.1 275.136 171.236 275.507 171.236 275.946C171.236 276.386 171.1 276.752 170.826 277.045C170.553 277.338 170.152 277.484 169.625 277.484C169.098 277.484 168.697 277.338 168.424 277.045C168.16 276.752 168.028 276.386 168.028 275.946ZM191.979 291.796C191.979 291.063 191.7 290.497 191.144 290.097C190.597 289.687 189.635 289.335 188.258 289.042C186.891 288.749 185.802 288.397 184.991 287.987C184.19 287.577 183.595 287.089 183.204 286.522C182.823 285.956 182.633 285.282 182.633 284.501C182.633 283.202 183.18 282.104 184.273 281.205C185.377 280.307 186.783 279.857 188.492 279.857C190.289 279.857 191.744 280.321 192.857 281.249C193.98 282.177 194.542 283.363 194.542 284.809H191.817C191.817 284.066 191.5 283.427 190.865 282.89C190.24 282.353 189.449 282.084 188.492 282.084C187.506 282.084 186.734 282.299 186.178 282.729C185.621 283.158 185.343 283.72 185.343 284.413C185.343 285.067 185.602 285.561 186.119 285.893C186.637 286.225 187.569 286.542 188.917 286.845C190.274 287.147 191.373 287.509 192.213 287.929C193.053 288.349 193.673 288.856 194.073 289.452C194.483 290.038 194.688 290.756 194.688 291.605C194.688 293.021 194.122 294.159 192.989 295.019C191.856 295.868 190.387 296.293 188.58 296.293C187.311 296.293 186.188 296.068 185.211 295.619C184.234 295.17 183.468 294.545 182.911 293.744C182.364 292.934 182.091 292.06 182.091 291.122H184.801C184.85 292.03 185.211 292.753 185.885 293.29C186.568 293.817 187.467 294.081 188.58 294.081C189.605 294.081 190.426 293.876 191.041 293.466C191.666 293.046 191.979 292.489 191.979 291.796ZM208.004 294.433C206.949 295.673 205.401 296.293 203.36 296.293C201.671 296.293 200.382 295.805 199.493 294.828C198.614 293.842 198.17 292.387 198.16 290.463V280.15H200.87V290.39C200.87 292.792 201.847 293.993 203.8 293.993C205.87 293.993 207.247 293.222 207.931 291.679V280.15H210.641V296H208.062L208.004 294.433ZM224.557 296C224.4 295.688 224.273 295.131 224.176 294.33C222.916 295.639 221.412 296.293 219.664 296.293C218.102 296.293 216.817 295.854 215.812 294.975C214.815 294.086 214.317 292.963 214.317 291.605C214.317 289.955 214.942 288.676 216.192 287.768C217.452 286.85 219.22 286.391 221.495 286.391H224.132V285.146C224.132 284.198 223.849 283.446 223.282 282.89C222.716 282.323 221.881 282.04 220.777 282.04C219.811 282.04 219 282.284 218.346 282.772C217.691 283.261 217.364 283.852 217.364 284.545H214.64C214.64 283.754 214.918 282.992 215.475 282.26C216.041 281.518 216.803 280.932 217.76 280.502C218.727 280.072 219.786 279.857 220.938 279.857C222.765 279.857 224.195 280.316 225.23 281.234C226.266 282.143 226.803 283.397 226.842 284.999V292.294C226.842 293.749 227.027 294.906 227.398 295.766V296H224.557ZM220.06 293.935C220.909 293.935 221.715 293.715 222.477 293.275C223.238 292.836 223.79 292.265 224.132 291.562V288.31H222.008C218.688 288.31 217.027 289.281 217.027 291.225C217.027 292.074 217.311 292.738 217.877 293.217C218.443 293.695 219.171 293.935 220.06 293.935ZM251.92 288.251C251.92 290.663 251.368 292.606 250.265 294.081C249.161 295.556 247.667 296.293 245.782 296.293C243.858 296.293 242.345 295.683 241.241 294.462V302.094H238.531V280.15H241.007L241.139 281.908C242.242 280.541 243.775 279.857 245.738 279.857C247.643 279.857 249.146 280.575 250.25 282.011C251.363 283.446 251.92 285.443 251.92 288.002V288.251ZM249.21 287.943C249.21 286.156 248.829 284.745 248.067 283.71C247.306 282.675 246.261 282.157 244.933 282.157C243.292 282.157 242.062 282.885 241.241 284.34V291.913C242.052 293.358 243.292 294.081 244.962 294.081C246.261 294.081 247.291 293.568 248.053 292.543C248.824 291.508 249.21 289.975 249.21 287.943ZM263.038 282.582C262.628 282.514 262.184 282.479 261.705 282.479C259.928 282.479 258.722 283.236 258.087 284.75V296H255.377V280.15H258.014L258.058 281.981C258.946 280.565 260.206 279.857 261.837 279.857C262.364 279.857 262.765 279.926 263.038 280.062V282.582ZM271.827 296.293C269.679 296.293 267.931 295.59 266.583 294.184C265.235 292.768 264.562 290.878 264.562 288.515V288.017C264.562 286.444 264.859 285.043 265.455 283.812C266.061 282.572 266.9 281.605 267.975 280.912C269.059 280.209 270.23 279.857 271.49 279.857C273.551 279.857 275.152 280.536 276.295 281.894C277.438 283.251 278.009 285.194 278.009 287.724V288.852H267.271C267.311 290.414 267.765 291.679 268.634 292.646C269.513 293.603 270.626 294.081 271.974 294.081C272.931 294.081 273.741 293.886 274.405 293.495C275.069 293.104 275.65 292.587 276.148 291.942L277.804 293.231C276.476 295.272 274.483 296.293 271.827 296.293ZM271.49 282.084C270.396 282.084 269.479 282.484 268.736 283.285C267.994 284.076 267.535 285.189 267.359 286.625H275.299V286.42C275.221 285.043 274.85 283.979 274.186 283.227C273.521 282.465 272.623 282.084 271.49 282.084ZM290.387 291.796C290.387 291.063 290.108 290.497 289.552 290.097C289.005 289.687 288.043 289.335 286.666 289.042C285.299 288.749 284.21 288.397 283.399 287.987C282.599 287.577 282.003 287.089 281.612 286.522C281.231 285.956 281.041 285.282 281.041 284.501C281.041 283.202 281.588 282.104 282.682 281.205C283.785 280.307 285.191 279.857 286.9 279.857C288.697 279.857 290.152 280.321 291.266 281.249C292.389 282.177 292.95 283.363 292.95 284.809H290.226C290.226 284.066 289.908 283.427 289.273 282.89C288.648 282.353 287.857 282.084 286.9 282.084C285.914 282.084 285.143 282.299 284.586 282.729C284.029 283.158 283.751 283.72 283.751 284.413C283.751 285.067 284.01 285.561 284.527 285.893C285.045 286.225 285.978 286.542 287.325 286.845C288.683 287.147 289.781 287.509 290.621 287.929C291.461 288.349 292.081 288.856 292.481 289.452C292.892 290.038 293.097 290.756 293.097 291.605C293.097 293.021 292.53 294.159 291.397 295.019C290.265 295.868 288.795 296.293 286.988 296.293C285.719 296.293 284.596 296.068 283.619 295.619C282.643 295.17 281.876 294.545 281.319 293.744C280.772 292.934 280.499 292.06 280.499 291.122H283.209C283.258 292.03 283.619 292.753 284.293 293.29C284.977 293.817 285.875 294.081 286.988 294.081C288.014 294.081 288.834 293.876 289.449 293.466C290.074 293.046 290.387 292.489 290.387 291.796ZM303.204 296.293C301.056 296.293 299.308 295.59 297.96 294.184C296.612 292.768 295.938 290.878 295.938 288.515V288.017C295.938 286.444 296.236 285.043 296.832 283.812C297.438 282.572 298.277 281.605 299.352 280.912C300.436 280.209 301.607 279.857 302.867 279.857C304.928 279.857 306.529 280.536 307.672 281.894C308.814 283.251 309.386 285.194 309.386 287.724V288.852H298.648C298.688 290.414 299.142 291.679 300.011 292.646C300.89 293.603 302.003 294.081 303.351 294.081C304.308 294.081 305.118 293.886 305.782 293.495C306.446 293.104 307.027 292.587 307.525 291.942L309.181 293.231C307.853 295.272 305.86 296.293 303.204 296.293ZM302.867 282.084C301.773 282.084 300.855 282.484 300.113 283.285C299.371 284.076 298.912 285.189 298.736 286.625H306.676V286.42C306.598 285.043 306.227 283.979 305.562 283.227C304.898 282.465 304 282.084 302.867 282.084ZM315.099 280.15L315.187 282.143C316.397 280.619 317.979 279.857 319.933 279.857C323.282 279.857 324.972 281.747 325.001 285.526V296H322.291V285.512C322.281 284.369 322.018 283.524 321.5 282.978C320.992 282.431 320.196 282.157 319.112 282.157C318.233 282.157 317.462 282.392 316.798 282.86C316.134 283.329 315.616 283.944 315.245 284.706V296H312.535V280.15H315.099ZM335.445 294.081C336.412 294.081 337.257 293.788 337.979 293.202C338.702 292.616 339.103 291.884 339.181 291.005H341.744C341.695 291.913 341.383 292.777 340.807 293.598C340.23 294.418 339.459 295.072 338.492 295.561C337.535 296.049 336.52 296.293 335.445 296.293C333.287 296.293 331.568 295.575 330.289 294.14C329.02 292.694 328.385 290.722 328.385 288.222V287.768C328.385 286.225 328.668 284.853 329.234 283.651C329.801 282.45 330.611 281.518 331.666 280.854C332.73 280.189 333.985 279.857 335.431 279.857C337.208 279.857 338.683 280.39 339.854 281.454C341.036 282.519 341.666 283.9 341.744 285.6H339.181C339.103 284.574 338.712 283.734 338.009 283.08C337.315 282.416 336.456 282.084 335.431 282.084C334.054 282.084 332.984 282.582 332.223 283.578C331.471 284.564 331.095 285.995 331.095 287.87V288.383C331.095 290.209 331.471 291.615 332.223 292.602C332.975 293.588 334.049 294.081 335.445 294.081ZM335.885 296.132L335.709 296.894C337.203 297.157 337.95 298.002 337.95 299.428C337.95 300.375 337.56 301.122 336.778 301.669C335.997 302.226 334.908 302.504 333.512 302.504L333.409 300.937C334.181 300.937 334.776 300.81 335.196 300.556C335.626 300.302 335.841 299.945 335.841 299.486C335.841 299.057 335.685 298.739 335.372 298.534C335.06 298.329 334.425 298.183 333.468 298.095L333.937 296.132H335.885ZM354.576 296C354.42 295.688 354.293 295.131 354.195 294.33C352.936 295.639 351.432 296.293 349.684 296.293C348.121 296.293 346.837 295.854 345.831 294.975C344.835 294.086 344.337 292.963 344.337 291.605C344.337 289.955 344.962 288.676 346.212 287.768C347.472 286.85 349.239 286.391 351.515 286.391H354.151V285.146C354.151 284.198 353.868 283.446 353.302 282.89C352.735 282.323 351.9 282.04 350.797 282.04C349.83 282.04 349.02 282.284 348.365 282.772C347.711 283.261 347.384 283.852 347.384 284.545H344.659C344.659 283.754 344.938 282.992 345.494 282.26C346.061 281.518 346.822 280.932 347.779 280.502C348.746 280.072 349.806 279.857 350.958 279.857C352.784 279.857 354.215 280.316 355.25 281.234C356.285 282.143 356.822 283.397 356.861 284.999V292.294C356.861 293.749 357.047 294.906 357.418 295.766V296H354.576ZM350.079 293.935C350.929 293.935 351.734 293.715 352.496 293.275C353.258 292.836 353.81 292.265 354.151 291.562V288.31H352.027C348.707 288.31 347.047 289.281 347.047 291.225C347.047 292.074 347.33 292.738 347.896 293.217C348.463 293.695 349.19 293.935 350.079 293.935ZM375.128 296.293C372.979 296.293 371.231 295.59 369.884 294.184C368.536 292.768 367.862 290.878 367.862 288.515V288.017C367.862 286.444 368.16 285.043 368.756 283.812C369.361 282.572 370.201 281.605 371.275 280.912C372.359 280.209 373.531 279.857 374.791 279.857C376.852 279.857 378.453 280.536 379.596 281.894C380.738 283.251 381.31 285.194 381.31 287.724V288.852H370.572C370.611 290.414 371.065 291.679 371.935 292.646C372.813 293.603 373.927 294.081 375.274 294.081C376.231 294.081 377.042 293.886 377.706 293.495C378.37 293.104 378.951 292.587 379.449 291.942L381.104 293.231C379.776 295.272 377.784 296.293 375.128 296.293ZM374.791 282.084C373.697 282.084 372.779 282.484 372.037 283.285C371.295 284.076 370.836 285.189 370.66 286.625H378.6V286.42C378.521 285.043 378.15 283.979 377.486 283.227C376.822 282.465 375.924 282.084 374.791 282.084ZM387.008 280.15L387.081 281.908C388.243 280.541 389.811 279.857 391.783 279.857C394 279.857 395.509 280.707 396.31 282.406C396.837 281.645 397.521 281.029 398.36 280.561C399.21 280.092 400.211 279.857 401.363 279.857C404.84 279.857 406.607 281.698 406.666 285.38V296H403.956V285.541C403.956 284.408 403.697 283.563 403.18 283.007C402.662 282.44 401.793 282.157 400.572 282.157C399.566 282.157 398.731 282.46 398.067 283.065C397.403 283.661 397.018 284.467 396.91 285.482V296H394.186V285.614C394.186 283.31 393.058 282.157 390.802 282.157C389.024 282.157 387.809 282.914 387.154 284.428V296H384.444V280.15H387.008ZM424.786 296.293C422.638 296.293 420.89 295.59 419.542 294.184C418.194 292.768 417.521 290.878 417.521 288.515V288.017C417.521 286.444 417.818 285.043 418.414 283.812C419.02 282.572 419.859 281.605 420.934 280.912C422.018 280.209 423.189 279.857 424.449 279.857C426.51 279.857 428.111 280.536 429.254 281.894C430.396 283.251 430.968 285.194 430.968 287.724V288.852H420.23C420.27 290.414 420.724 291.679 421.593 292.646C422.472 293.603 423.585 294.081 424.933 294.081C425.89 294.081 426.7 293.886 427.364 293.495C428.028 293.104 428.609 292.587 429.107 291.942L430.763 293.231C429.435 295.272 427.442 296.293 424.786 296.293ZM424.449 282.084C423.355 282.084 422.438 282.484 421.695 283.285C420.953 284.076 420.494 285.189 420.318 286.625H428.258V286.42C428.18 285.043 427.809 283.979 427.145 283.227C426.48 282.465 425.582 282.084 424.449 282.084ZM439.142 292.323L443.067 280.15H445.836L440.152 296H438.087L432.345 280.15H435.113L439.142 292.323ZM454.815 296.293C452.667 296.293 450.919 295.59 449.571 294.184C448.224 292.768 447.55 290.878 447.55 288.515V288.017C447.55 286.444 447.848 285.043 448.443 283.812C449.049 282.572 449.889 281.605 450.963 280.912C452.047 280.209 453.219 279.857 454.479 279.857C456.539 279.857 458.141 280.536 459.283 281.894C460.426 283.251 460.997 285.194 460.997 287.724V288.852H450.26C450.299 290.414 450.753 291.679 451.622 292.646C452.501 293.603 453.614 294.081 454.962 294.081C455.919 294.081 456.729 293.886 457.394 293.495C458.058 293.104 458.639 292.587 459.137 291.942L460.792 293.231C459.464 295.272 457.472 296.293 454.815 296.293ZM454.479 282.084C453.385 282.084 452.467 282.484 451.725 283.285C450.982 284.076 450.523 285.189 450.348 286.625H458.287V286.42C458.209 285.043 457.838 283.979 457.174 283.227C456.51 282.465 455.611 282.084 454.479 282.084ZM466.71 280.15L466.798 282.143C468.009 280.619 469.591 279.857 471.544 279.857C474.894 279.857 476.583 281.747 476.612 285.526V296H473.902V285.512C473.893 284.369 473.629 283.524 473.111 282.978C472.604 282.431 471.808 282.157 470.724 282.157C469.845 282.157 469.073 282.392 468.409 282.86C467.745 283.329 467.228 283.944 466.856 284.706V296H464.146V280.15H466.71ZM484.376 276.312V280.15H487.335V282.245H484.376V292.074C484.376 292.709 484.508 293.188 484.771 293.51C485.035 293.822 485.484 293.979 486.119 293.979C486.432 293.979 486.861 293.92 487.408 293.803V296C486.695 296.195 486.002 296.293 485.328 296.293C484.117 296.293 483.204 295.927 482.589 295.194C481.974 294.462 481.666 293.422 481.666 292.074V282.245H478.78V280.15H481.666V276.312H484.376ZM489.503 287.929C489.503 286.376 489.806 284.979 490.411 283.739C491.026 282.499 491.876 281.542 492.96 280.868C494.054 280.194 495.299 279.857 496.695 279.857C498.854 279.857 500.597 280.604 501.925 282.099C503.263 283.593 503.932 285.58 503.932 288.061V288.251C503.932 289.794 503.634 291.181 503.038 292.411C502.452 293.632 501.607 294.584 500.504 295.268C499.41 295.951 498.15 296.293 496.725 296.293C494.576 296.293 492.833 295.546 491.495 294.052C490.167 292.558 489.503 290.58 489.503 288.119V287.929ZM492.228 288.251C492.228 290.009 492.633 291.42 493.443 292.484C494.264 293.549 495.357 294.081 496.725 294.081C498.102 294.081 499.195 293.544 500.006 292.47C500.816 291.386 501.222 289.872 501.222 287.929C501.222 286.19 500.807 284.784 499.977 283.71C499.156 282.626 498.062 282.084 496.695 282.084C495.357 282.084 494.278 282.616 493.458 283.681C492.638 284.745 492.228 286.269 492.228 288.251ZM516.559 291.796C516.559 291.063 516.28 290.497 515.724 290.097C515.177 289.687 514.215 289.335 512.838 289.042C511.471 288.749 510.382 288.397 509.571 287.987C508.771 287.577 508.175 287.089 507.784 286.522C507.403 285.956 507.213 285.282 507.213 284.501C507.213 283.202 507.76 282.104 508.854 281.205C509.957 280.307 511.363 279.857 513.072 279.857C514.869 279.857 516.324 280.321 517.438 281.249C518.561 282.177 519.122 283.363 519.122 284.809H516.397C516.397 284.066 516.08 283.427 515.445 282.89C514.82 282.353 514.029 282.084 513.072 282.084C512.086 282.084 511.314 282.299 510.758 282.729C510.201 283.158 509.923 283.72 509.923 284.413C509.923 285.067 510.182 285.561 510.699 285.893C511.217 286.225 512.149 286.542 513.497 286.845C514.854 287.147 515.953 287.509 516.793 287.929C517.633 288.349 518.253 288.856 518.653 289.452C519.063 290.038 519.269 290.756 519.269 291.605C519.269 293.021 518.702 294.159 517.569 295.019C516.437 295.868 514.967 296.293 513.16 296.293C511.891 296.293 510.768 296.068 509.791 295.619C508.814 295.17 508.048 294.545 507.491 293.744C506.944 292.934 506.671 292.06 506.671 291.122H509.381C509.43 292.03 509.791 292.753 510.465 293.29C511.148 293.817 512.047 294.081 513.16 294.081C514.186 294.081 515.006 293.876 515.621 293.466C516.246 293.046 516.559 292.489 516.559 291.796ZM529.581 287.943C529.581 285.512 530.157 283.559 531.31 282.084C532.462 280.6 533.971 279.857 535.836 279.857C537.691 279.857 539.161 280.492 540.245 281.762V273.5H542.955V296H540.465L540.333 294.301C539.249 295.629 537.74 296.293 535.807 296.293C533.971 296.293 532.472 295.541 531.31 294.037C530.157 292.533 529.581 290.57 529.581 288.148V287.943ZM532.291 288.251C532.291 290.048 532.662 291.454 533.404 292.47C534.146 293.485 535.172 293.993 536.48 293.993C538.199 293.993 539.454 293.222 540.245 291.679V284.398C539.435 282.904 538.189 282.157 536.51 282.157C535.182 282.157 534.146 282.67 533.404 283.695C532.662 284.721 532.291 286.239 532.291 288.251ZM556.959 296C556.803 295.688 556.676 295.131 556.578 294.33C555.318 295.639 553.814 296.293 552.066 296.293C550.504 296.293 549.22 295.854 548.214 294.975C547.218 294.086 546.72 292.963 546.72 291.605C546.72 289.955 547.345 288.676 548.595 287.768C549.854 286.85 551.622 286.391 553.897 286.391H556.534V285.146C556.534 284.198 556.251 283.446 555.685 282.89C555.118 282.323 554.283 282.04 553.18 282.04C552.213 282.04 551.402 282.284 550.748 282.772C550.094 283.261 549.767 283.852 549.767 284.545H547.042C547.042 283.754 547.32 282.992 547.877 282.26C548.443 281.518 549.205 280.932 550.162 280.502C551.129 280.072 552.188 279.857 553.341 279.857C555.167 279.857 556.598 280.316 557.633 281.234C558.668 282.143 559.205 283.397 559.244 284.999V292.294C559.244 293.749 559.43 294.906 559.801 295.766V296H556.959ZM552.462 293.935C553.312 293.935 554.117 293.715 554.879 293.275C555.641 292.836 556.192 292.265 556.534 291.562V288.31H554.41C551.09 288.31 549.43 289.281 549.43 291.225C549.43 292.074 549.713 292.738 550.279 293.217C550.846 293.695 551.573 293.935 552.462 293.935ZM571.358 296V274.672H577.379C579.234 274.672 580.875 275.082 582.301 275.902C583.727 276.723 584.825 277.89 585.597 279.403C586.378 280.917 586.773 282.655 586.783 284.618V285.98C586.783 287.992 586.393 289.755 585.611 291.269C584.84 292.782 583.731 293.944 582.286 294.755C580.851 295.565 579.176 295.98 577.262 296H571.358ZM574.171 276.986V293.7H577.13C579.298 293.7 580.982 293.026 582.184 291.679C583.395 290.331 584 288.412 584 285.922V284.677C584 282.255 583.429 280.375 582.286 279.037C581.153 277.689 579.542 277.006 577.452 276.986H574.171ZM605.372 276.986H598.517V296H595.719V276.986H588.878V274.672H605.372V276.986ZM620.592 286.142H611.349V293.7H622.086V296H608.536V274.672H621.939V276.986H611.349V283.842H620.592V286.142ZM625.587 296V274.672H631.607C633.463 274.672 635.104 275.082 636.529 275.902C637.955 276.723 639.054 277.89 639.825 279.403C640.606 280.917 641.002 282.655 641.012 284.618V285.98C641.012 287.992 640.621 289.755 639.84 291.269C639.068 292.782 637.96 293.944 636.515 294.755C635.079 295.565 633.404 295.98 631.49 296H625.587ZM628.399 276.986V293.7H631.358C633.526 293.7 635.211 293.026 636.412 291.679C637.623 290.331 638.229 288.412 638.229 285.922V284.677C638.229 282.255 637.657 280.375 636.515 279.037C635.382 277.689 633.771 277.006 631.681 276.986H628.399Z" fill="#4F4F4F"/>
<path d="M33.1992 58.7695H19.1953V90H1.61719V4.6875H33.3164C43.3945 4.6875 51.168 6.93359 56.6367 11.4258C62.1055 15.918 64.8398 22.2656 64.8398 30.4688C64.8398 36.2891 63.5703 41.1523 61.0312 45.0586C58.5312 48.9258 54.7227 52.0117 49.6055 54.3164L68.0625 89.1797V90H49.1953L33.1992 58.7695ZM19.1953 44.5312H33.375C37.7891 44.5312 41.207 43.418 43.6289 41.1914C46.0508 38.9258 47.2617 35.8203 47.2617 31.875C47.2617 27.8516 46.1094 24.6875 43.8047 22.3828C41.5391 20.0781 38.043 18.9258 33.3164 18.9258H19.1953V44.5312ZM106.324 91.1719C97.0273 91.1719 89.4492 88.3203 83.5898 82.6172C77.7695 76.9141 74.8594 69.3164 74.8594 59.8242V58.1836C74.8594 51.8164 76.0898 46.1328 78.5508 41.1328C81.0117 36.0938 84.4883 32.2266 88.9805 29.5312C93.5117 26.7969 98.668 25.4297 104.449 25.4297C113.121 25.4297 119.938 28.1641 124.898 33.6328C129.898 39.1016 132.398 46.8555 132.398 56.8945V63.8086H92.0273C92.5742 67.9492 94.2148 71.2695 96.9492 73.7695C99.7227 76.2695 103.219 77.5195 107.438 77.5195C113.961 77.5195 119.059 75.1562 122.73 70.4297L131.051 79.7461C128.512 83.3398 125.074 86.1523 120.738 88.1836C116.402 90.1758 111.598 91.1719 106.324 91.1719ZM104.391 39.1406C101.031 39.1406 98.2969 40.2734 96.1875 42.5391C94.1172 44.8047 92.7891 48.0469 92.2031 52.2656H115.758V50.918C115.68 47.168 114.664 44.2773 112.711 42.2461C110.758 40.1758 107.984 39.1406 104.391 39.1406ZM139.605 57.832C139.605 48.1055 141.91 40.2734 146.52 34.3359C151.168 28.3984 157.418 25.4297 165.27 25.4297C172.223 25.4297 177.633 27.8125 181.5 32.5781L182.203 26.6016H197.555V87.8906C197.555 93.4375 196.285 98.2617 193.746 102.363C191.246 106.465 187.711 109.59 183.141 111.738C178.57 113.887 173.219 114.961 167.086 114.961C162.438 114.961 157.906 114.023 153.492 112.148C149.078 110.312 145.738 107.93 143.473 105L150.973 94.6875C155.191 99.4141 160.309 101.777 166.324 101.777C170.816 101.777 174.312 100.566 176.812 98.1445C179.312 95.7617 180.562 92.3633 180.562 87.9492V84.5508C176.656 88.9648 171.52 91.1719 165.152 91.1719C157.535 91.1719 151.363 88.2031 146.637 82.2656C141.949 76.2891 139.605 68.3789 139.605 58.5352V57.832ZM156.539 59.0625C156.539 64.8047 157.691 69.3164 159.996 72.5977C162.301 75.8398 165.465 77.4609 169.488 77.4609C174.645 77.4609 178.336 75.5273 180.562 71.6602V45C178.297 41.1328 174.645 39.1992 169.605 39.1992C165.543 39.1992 162.34 40.8594 159.996 44.1797C157.691 47.5 156.539 52.4609 156.539 59.0625ZM228.492 90H211.5V26.6016H228.492V90ZM210.504 10.1953C210.504 7.65625 211.344 5.56641 213.023 3.92578C214.742 2.28516 217.066 1.46484 219.996 1.46484C222.887 1.46484 225.191 2.28516 226.91 3.92578C228.629 5.56641 229.488 7.65625 229.488 10.1953C229.488 12.7734 228.609 14.8828 226.852 16.5234C225.133 18.1641 222.848 18.9844 219.996 18.9844C217.145 18.9844 214.84 18.1641 213.082 16.5234C211.363 14.8828 210.504 12.7734 210.504 10.1953ZM276.832 72.4805C276.832 70.4102 275.797 68.7891 273.727 67.6172C271.695 66.4062 268.414 65.332 263.883 64.3945C248.805 61.2305 241.266 54.8242 241.266 45.1758C241.266 39.5508 243.59 34.8633 248.238 31.1133C252.926 27.3242 259.039 25.4297 266.578 25.4297C274.625 25.4297 281.051 27.3242 285.855 31.1133C290.699 34.9023 293.121 39.8242 293.121 45.8789H276.188C276.188 43.457 275.406 41.4648 273.844 39.9023C272.281 38.3008 269.84 37.5 266.52 37.5C263.668 37.5 261.461 38.1445 259.898 39.4336C258.336 40.7227 257.555 42.3633 257.555 44.3555C257.555 46.2305 258.434 47.7539 260.191 48.9258C261.988 50.0586 264.996 51.0547 269.215 51.9141C273.434 52.7344 276.988 53.6719 279.879 54.7266C288.824 58.0078 293.297 63.6914 293.297 71.7773C293.297 77.5586 290.816 82.2461 285.855 85.8398C280.895 89.3945 274.488 91.1719 266.637 91.1719C261.324 91.1719 256.598 90.2344 252.457 88.3594C248.355 86.4453 245.133 83.8477 242.789 80.5664C240.445 77.2461 239.273 73.6719 239.273 69.8438H255.328C255.484 72.8516 256.598 75.1562 258.668 76.7578C260.738 78.3594 263.512 79.1602 266.988 79.1602C270.23 79.1602 272.672 78.5547 274.312 77.3438C275.992 76.0938 276.832 74.4727 276.832 72.4805ZM324.527 11.0156V26.6016H335.367V39.0234H324.527V70.6641C324.527 73.0078 324.977 74.6875 325.875 75.7031C326.773 76.7188 328.492 77.2266 331.031 77.2266C332.906 77.2266 334.566 77.0898 336.012 76.8164V89.6484C332.691 90.6641 329.273 91.1719 325.758 91.1719C313.883 91.1719 307.828 85.1758 307.594 73.1836V39.0234H298.336V26.6016H307.594V11.0156H324.527ZM380.426 42.4805C378.121 42.168 376.09 42.0117 374.332 42.0117C367.926 42.0117 363.727 44.1797 361.734 48.5156V90H344.801V26.6016H360.797L361.266 34.1602C364.664 28.3398 369.371 25.4297 375.387 25.4297C377.262 25.4297 379.02 25.6836 380.66 26.1914L380.426 42.4805ZM383.883 57.7148C383.883 51.4258 385.094 45.8203 387.516 40.8984C389.938 35.9766 393.414 32.168 397.945 29.4727C402.516 26.7773 407.809 25.4297 413.824 25.4297C422.379 25.4297 429.352 28.0469 434.742 33.2812C440.172 38.5156 443.199 45.625 443.824 54.6094L443.941 58.9453C443.941 68.6719 441.227 76.4844 435.797 82.3828C430.367 88.2422 423.082 91.1719 413.941 91.1719C404.801 91.1719 397.496 88.2422 392.027 82.3828C386.598 76.5234 383.883 68.5547 383.883 58.4766V57.7148ZM400.816 58.9453C400.816 64.9609 401.949 69.5703 404.215 72.7734C406.48 75.9375 409.723 77.5195 413.941 77.5195C418.043 77.5195 421.246 75.957 423.551 72.832C425.855 69.668 427.008 64.6289 427.008 57.7148C427.008 51.8164 425.855 47.2461 423.551 44.0039C421.246 40.7617 418.004 39.1406 413.824 39.1406C409.684 39.1406 406.48 40.7617 404.215 44.0039C401.949 47.207 400.816 52.1875 400.816 58.9453ZM481.617 57.832C481.617 47.9492 483.824 40.0781 488.238 34.2188C492.691 28.3594 498.766 25.4297 506.461 25.4297C512.633 25.4297 517.73 27.7344 521.754 32.3438V0H538.746V90H523.453L522.633 83.2617C518.414 88.5352 512.984 91.1719 506.344 91.1719C498.883 91.1719 492.887 88.2422 488.355 82.3828C483.863 76.4844 481.617 68.3008 481.617 57.832ZM498.551 59.0625C498.551 65 499.586 69.5508 501.656 72.7148C503.727 75.8789 506.734 77.4609 510.68 77.4609C515.914 77.4609 519.605 75.2539 521.754 70.8398V45.8203C519.645 41.4062 515.992 39.1992 510.797 39.1992C502.633 39.1992 498.551 45.8203 498.551 59.0625ZM581.051 91.1719C571.754 91.1719 564.176 88.3203 558.316 82.6172C552.496 76.9141 549.586 69.3164 549.586 59.8242V58.1836C549.586 51.8164 550.816 46.1328 553.277 41.1328C555.738 36.0938 559.215 32.2266 563.707 29.5312C568.238 26.7969 573.395 25.4297 579.176 25.4297C587.848 25.4297 594.664 28.1641 599.625 33.6328C604.625 39.1016 607.125 46.8555 607.125 56.8945V63.8086H566.754C567.301 67.9492 568.941 71.2695 571.676 73.7695C574.449 76.2695 577.945 77.5195 582.164 77.5195C588.688 77.5195 593.785 75.1562 597.457 70.4297L605.777 79.7461C603.238 83.3398 599.801 86.1523 595.465 88.1836C591.129 90.1758 586.324 91.1719 581.051 91.1719ZM579.117 39.1406C575.758 39.1406 573.023 40.2734 570.914 42.5391C568.844 44.8047 567.516 48.0469 566.93 52.2656H590.484V50.918C590.406 47.168 589.391 44.2773 587.438 42.2461C585.484 40.1758 582.711 39.1406 579.117 39.1406ZM57.5742 178.887C57.5742 188.652 55.3477 196.484 50.8945 202.383C46.4805 208.242 40.5039 211.172 32.9648 211.172C26.5586 211.172 21.3828 208.945 17.4375 204.492V234.375H0.503906V146.602H16.207L16.793 152.812C20.8945 147.891 26.2461 145.43 32.8477 145.43C40.6602 145.43 46.7344 148.32 51.0703 154.102C55.4062 159.883 57.5742 167.852 57.5742 178.008V178.887ZM40.6406 177.656C40.6406 171.758 39.5859 167.207 37.4766 164.004C35.4062 160.801 32.3789 159.199 28.3945 159.199C23.082 159.199 19.4297 161.23 17.4375 165.293V191.25C19.5078 195.43 23.1992 197.52 28.5117 197.52C36.5977 197.52 40.6406 190.898 40.6406 177.656ZM103.746 162.48C101.441 162.168 99.4102 162.012 97.6523 162.012C91.2461 162.012 87.0469 164.18 85.0547 168.516V210H68.1211V146.602H84.1172L84.5859 154.16C87.9844 148.34 92.6914 145.43 98.707 145.43C100.582 145.43 102.34 145.684 103.98 146.191L103.746 162.48ZM139.957 211.172C130.66 211.172 123.082 208.32 117.223 202.617C111.402 196.914 108.492 189.316 108.492 179.824V178.184C108.492 171.816 109.723 166.133 112.184 161.133C114.645 156.094 118.121 152.227 122.613 149.531C127.145 146.797 132.301 145.43 138.082 145.43C146.754 145.43 153.57 148.164 158.531 153.633C163.531 159.102 166.031 166.855 166.031 176.895V183.809H125.66C126.207 187.949 127.848 191.27 130.582 193.77C133.355 196.27 136.852 197.52 141.07 197.52C147.594 197.52 152.691 195.156 156.363 190.43L164.684 199.746C162.145 203.34 158.707 206.152 154.371 208.184C150.035 210.176 145.23 211.172 139.957 211.172ZM138.023 159.141C134.664 159.141 131.93 160.273 129.82 162.539C127.75 164.805 126.422 168.047 125.836 172.266H149.391V170.918C149.312 167.168 148.297 164.277 146.344 162.246C144.391 160.176 141.617 159.141 138.023 159.141ZM210.035 192.48C210.035 190.41 209 188.789 206.93 187.617C204.898 186.406 201.617 185.332 197.086 184.395C182.008 181.23 174.469 174.824 174.469 165.176C174.469 159.551 176.793 154.863 181.441 151.113C186.129 147.324 192.242 145.43 199.781 145.43C207.828 145.43 214.254 147.324 219.059 151.113C223.902 154.902 226.324 159.824 226.324 165.879H209.391C209.391 163.457 208.609 161.465 207.047 159.902C205.484 158.301 203.043 157.5 199.723 157.5C196.871 157.5 194.664 158.145 193.102 159.434C191.539 160.723 190.758 162.363 190.758 164.355C190.758 166.23 191.637 167.754 193.395 168.926C195.191 170.059 198.199 171.055 202.418 171.914C206.637 172.734 210.191 173.672 213.082 174.727C222.027 178.008 226.5 183.691 226.5 191.777C226.5 197.559 224.02 202.246 219.059 205.84C214.098 209.395 207.691 211.172 199.84 211.172C194.527 211.172 189.801 210.234 185.66 208.359C181.559 206.445 178.336 203.848 175.992 200.566C173.648 197.246 172.477 193.672 172.477 189.844H188.531C188.688 192.852 189.801 195.156 191.871 196.758C193.941 198.359 196.715 199.16 200.191 199.16C203.434 199.16 205.875 198.555 207.516 197.344C209.195 196.094 210.035 194.473 210.035 192.48ZM266.637 211.172C257.34 211.172 249.762 208.32 243.902 202.617C238.082 196.914 235.172 189.316 235.172 179.824V178.184C235.172 171.816 236.402 166.133 238.863 161.133C241.324 156.094 244.801 152.227 249.293 149.531C253.824 146.797 258.98 145.43 264.762 145.43C273.434 145.43 280.25 148.164 285.211 153.633C290.211 159.102 292.711 166.855 292.711 176.895V183.809H252.34C252.887 187.949 254.527 191.27 257.262 193.77C260.035 196.27 263.531 197.52 267.75 197.52C274.273 197.52 279.371 195.156 283.043 190.43L291.363 199.746C288.824 203.34 285.387 206.152 281.051 208.184C276.715 210.176 271.91 211.172 266.637 211.172ZM264.703 159.141C261.344 159.141 258.609 160.273 256.5 162.539C254.43 164.805 253.102 168.047 252.516 172.266H276.07V170.918C275.992 167.168 274.977 164.277 273.023 162.246C271.07 160.176 268.297 159.141 264.703 159.141ZM317.965 146.602L318.492 153.926C323.023 148.262 329.098 145.43 336.715 145.43C343.434 145.43 348.434 147.402 351.715 151.348C354.996 155.293 356.676 161.191 356.754 169.043V210H339.82V169.453C339.82 165.859 339.039 163.262 337.477 161.66C335.914 160.02 333.316 159.199 329.684 159.199C324.918 159.199 321.344 161.23 318.961 165.293V210H302.027V146.602H317.965ZM396.012 197.52C399.137 197.52 401.676 196.66 403.629 194.941C405.582 193.223 406.598 190.938 406.676 188.086H422.555C422.516 192.383 421.344 196.328 419.039 199.922C416.734 203.477 413.57 206.25 409.547 208.242C405.562 210.195 401.148 211.172 396.305 211.172C387.242 211.172 380.094 208.301 374.859 202.559C369.625 196.777 367.008 188.809 367.008 178.652V177.539C367.008 167.773 369.605 159.98 374.801 154.16C379.996 148.34 387.125 145.43 396.188 145.43C404.117 145.43 410.465 147.695 415.23 152.227C420.035 156.719 422.477 162.715 422.555 170.215H406.676C406.598 166.934 405.582 164.277 403.629 162.246C401.676 160.176 399.098 159.141 395.895 159.141C391.949 159.141 388.961 160.586 386.93 163.477C384.938 166.328 383.941 170.977 383.941 177.422V179.18C383.941 185.703 384.938 190.391 386.93 193.242C388.922 196.094 391.949 197.52 396.012 197.52ZM402.164 209.648L401.52 213.047C407.379 214.102 410.309 217.48 410.309 223.184C410.309 227.48 408.512 230.879 404.918 233.379C401.363 235.879 396.344 237.129 389.859 237.129L389.449 227.344C393.824 227.344 396.012 225.762 396.012 222.598C396.012 220.957 395.348 219.824 394.02 219.199C392.73 218.613 390.621 218.223 387.691 218.027L389.508 209.648H402.164ZM468.961 210C468.18 208.477 467.613 206.582 467.262 204.316C463.16 208.887 457.828 211.172 451.266 211.172C445.055 211.172 439.898 209.375 435.797 205.781C431.734 202.188 429.703 197.656 429.703 192.188C429.703 185.469 432.184 180.312 437.145 176.719C442.145 173.125 449.352 171.309 458.766 171.27H466.559V167.637C466.559 164.707 465.797 162.363 464.273 160.605C462.789 158.848 460.426 157.969 457.184 157.969C454.332 157.969 452.086 158.652 450.445 160.02C448.844 161.387 448.043 163.262 448.043 165.645H431.109C431.109 161.973 432.242 158.574 434.508 155.449C436.773 152.324 439.977 149.883 444.117 148.125C448.258 146.328 452.906 145.43 458.062 145.43C465.875 145.43 472.066 147.402 476.637 151.348C481.246 155.254 483.551 160.762 483.551 167.871V195.352C483.59 201.367 484.43 205.918 486.07 209.004V210H468.961ZM454.957 198.223C457.457 198.223 459.762 197.676 461.871 196.582C463.98 195.449 465.543 193.945 466.559 192.07V181.172H460.23C451.754 181.172 447.242 184.102 446.695 189.961L446.637 190.957C446.637 193.066 447.379 194.805 448.863 196.172C450.348 197.539 452.379 198.223 454.957 198.223Z" fill="#CFA772"/>
</svg>
