<?xml version="1.0" encoding="UTF-8" standalone="no"?>
<svg
   width="642"
   height="303"
   viewBox="0 0 642 303"
   fill="none"
   version="1.1"
   id="svg2"
   sodipodi:docname="text_telessaude.svg"
   inkscape:version="1.3.2 (091e20e, 2023-11-25)"
   xmlns:inkscape="http://www.inkscape.org/namespaces/inkscape"
   xmlns:sodipodi="http://sodipodi.sourceforge.net/DTD/sodipodi-0.dtd"
   xmlns="http://www.w3.org/2000/svg"
   xmlns:svg="http://www.w3.org/2000/svg">
  <defs
     id="defs2" />
  <sodipodi:namedview
     id="namedview2"
     pagecolor="#ffffff"
     bordercolor="#666666"
     borderopacity="1.0"
     inkscape:showpageshadow="2"
     inkscape:pageopacity="0.0"
     inkscape:pagecheckerboard="0"
     inkscape:deskcolor="#d1d1d1"
     showgrid="false"
     inkscape:zoom="1.9766355"
     inkscape:cx="326.31206"
     inkscape:cy="151.26714"
     inkscape:window-width="1920"
     inkscape:window-height="1016"
     inkscape:window-x="0"
     inkscape:window-y="27"
     inkscape:window-maximized="1"
     inkscape:current-layer="svg2" />
  <path
     d="M 33.1992,58.7695 H 19.1953 V 90 H 1.61719 V 4.6875 H 33.3164 c 10.0781,0 17.8516,2.24609 23.3203,6.7383 5.4688,4.4922 8.2031,10.8398 8.2031,19.043 0,5.8203 -1.2695,10.6835 -3.8086,14.5898 -2.5,3.8672 -6.3085,6.9531 -11.4257,9.2578 l 18.457,34.8633 V 90 H 49.1953 Z M 19.1953,44.5312 H 33.375 c 4.4141,0 7.832,-1.1132 10.2539,-3.3398 2.4219,-2.2656 3.6328,-5.3711 3.6328,-9.3164 0,-4.0234 -1.1523,-7.1875 -3.457,-9.4922 -2.2656,-2.3047 -5.7617,-3.457 -10.4883,-3.457 H 19.1953 Z m 87.1287,46.6407 c -9.2967,0 -16.8748,-2.8516 -22.7342,-8.5547 -5.8203,-5.7031 -8.7304,-13.3008 -8.7304,-22.793 v -1.6406 c 0,-6.3672 1.2304,-12.0508 3.6914,-17.0508 2.4609,-5.039 5.9375,-8.9062 10.4297,-11.6016 4.5312,-2.7343 9.6875,-4.1015 15.4685,-4.1015 8.672,0 15.489,2.7344 20.449,8.2031 5,5.4688 7.5,13.2227 7.5,23.2617 v 6.9141 H 92.0273 c 0.5469,4.1406 2.1875,7.4609 4.9219,9.9609 2.7735,2.5 6.2698,3.75 10.4888,3.75 6.523,0 11.621,-2.3633 15.292,-7.0898 l 8.321,9.3164 c -2.539,3.5937 -5.977,6.4062 -10.313,8.4375 -4.336,1.9922 -9.14,2.9883 -14.414,2.9883 z m -1.933,-52.0313 c -3.36,0 -6.0941,1.1328 -8.2035,3.3985 -2.0703,2.2656 -3.3984,5.5078 -3.9844,9.7265 H 115.758 V 50.918 c -0.078,-3.75 -1.094,-6.6407 -3.047,-8.6719 -1.953,-2.0703 -4.727,-3.1055 -8.32,-3.1055 z m 35.214,18.6914 c 0,-9.7265 2.305,-17.5586 6.915,-23.4961 4.648,-5.9375 10.898,-8.9062 18.75,-8.9062 6.953,0 12.363,2.3828 16.23,7.1484 l 0.703,-5.9765 h 15.352 v 61.289 c 0,5.5469 -1.27,10.3711 -3.809,14.4724 -2.5,4.102 -6.035,7.227 -10.605,9.375 -4.571,2.149 -9.922,3.223 -16.055,3.223 -4.648,0 -9.18,-0.938 -13.594,-2.813 -4.414,-1.836 -7.754,-4.218 -10.019,-7.148 l 7.5,-10.3125 c 4.218,4.7266 9.336,7.0895 15.351,7.0895 4.492,0 7.988,-1.211 10.488,-3.6325 2.5,-2.3828 3.75,-5.7812 3.75,-10.1953 v -3.3984 c -3.906,4.414 -9.042,6.6211 -15.41,6.6211 -7.617,0 -13.789,-2.9688 -18.515,-8.9063 -4.688,-5.9765 -7.032,-13.8867 -7.032,-23.7304 z m 16.934,1.2305 c 0,5.7422 1.152,10.2539 3.457,13.5352 2.305,3.2421 5.469,4.8632 9.492,4.8632 5.157,0 8.848,-1.9336 11.074,-5.8007 V 45 c -2.265,-3.8672 -5.917,-5.8008 -10.957,-5.8008 -4.062,0 -7.265,1.6602 -9.609,4.9805 -2.305,3.3203 -3.457,8.2812 -3.457,14.8828 z M 228.492,90 H 211.5 V 26.6016 h 16.992 z M 210.504,10.1953 c 0,-2.53905 0.84,-4.62889 2.519,-6.26952 1.719,-1.64062 4.043,-2.46094 6.973,-2.46094 2.891,0 5.195,0.82032 6.914,2.46094 1.719,1.64063 2.578,3.73047 2.578,6.26952 0,2.5781 -0.879,4.6875 -2.636,6.3281 -1.719,1.6407 -4.004,2.461 -6.856,2.461 -2.851,0 -5.156,-0.8203 -6.914,-2.461 -1.719,-1.6406 -2.578,-3.75 -2.578,-6.3281 z m 66.328,62.2852 c 0,-2.0703 -1.035,-3.6914 -3.105,-4.8633 -2.032,-1.211 -5.313,-2.2852 -9.844,-3.2227 -15.078,-3.164 -22.617,-9.5703 -22.617,-19.2187 0,-5.625 2.324,-10.3125 6.972,-14.0625 4.688,-3.7891 10.801,-5.6836 18.34,-5.6836 8.047,0 14.473,1.8945 19.277,5.6836 4.844,3.789 7.266,8.7109 7.266,14.7656 h -16.933 c 0,-2.4219 -0.782,-4.4141 -2.344,-5.9766 C 272.281,38.3008 269.84,37.5 266.52,37.5 c -2.852,0 -5.059,0.6445 -6.622,1.9336 -1.562,1.2891 -2.343,2.9297 -2.343,4.9219 0,1.875 0.879,3.3984 2.636,4.5703 1.797,1.1328 4.805,2.1289 9.024,2.9883 4.219,0.8203 7.773,1.7578 10.664,2.8125 8.945,3.2812 13.418,8.9648 13.418,17.0507 0,5.7813 -2.481,10.4688 -7.442,14.0625 -4.96,3.5547 -11.367,5.3321 -19.218,5.3321 -5.313,0 -10.039,-0.9375 -14.18,-2.8125 -4.102,-1.9141 -7.324,-4.5117 -9.668,-7.793 -2.344,-3.3203 -3.516,-6.8945 -3.516,-10.7226 h 16.055 c 0.156,3.0078 1.27,5.3124 3.34,6.914 2.07,1.6016 4.844,2.4024 8.32,2.4024 3.242,0 5.684,-0.6055 7.324,-1.8164 1.68,-1.25 2.52,-2.8711 2.52,-4.8633 z m 47.695,-61.4649 v 15.586 h 10.84 v 12.4218 h -10.84 v 31.6407 c 0,2.3437 0.45,4.0234 1.348,5.039 0.898,1.0157 2.617,1.5235 5.156,1.5235 1.875,0 3.535,-0.1368 4.981,-0.4102 v 12.832 c -3.321,1.0157 -6.739,1.5235 -10.254,1.5235 -11.875,0 -17.93,-5.9961 -18.164,-17.9883 V 39.0234 h -9.258 V 26.6016 h 9.258 v -15.586 z m 55.899,31.4649 c -2.305,-0.3125 -4.336,-0.4688 -6.094,-0.4688 -6.406,0 -10.605,2.168 -12.598,6.5039 V 90 H 344.801 V 26.6016 h 15.996 l 0.469,7.5586 c 3.398,-5.8204 8.105,-8.7305 14.121,-8.7305 1.875,0 3.633,0.2539 5.273,0.7617 z m 3.457,15.2343 c 0,-6.289 1.211,-11.8945 3.633,-16.8164 2.422,-4.9218 5.898,-8.7304 10.429,-11.4257 4.571,-2.6954 9.864,-4.043 15.879,-4.043 8.555,0 15.528,2.6172 20.918,7.8515 5.43,5.2344 8.457,12.3438 9.082,21.3282 l 0.117,4.3359 c 0,9.7266 -2.714,17.5391 -8.144,23.4375 -5.43,5.8594 -12.715,8.7891 -21.856,8.7891 -9.14,0 -16.445,-2.9297 -21.914,-8.7891 -5.429,-5.8594 -8.144,-13.8281 -8.144,-23.9062 z m 16.933,1.2305 c 0,6.0156 1.133,10.625 3.399,13.8281 2.265,3.1641 5.508,4.7461 9.726,4.7461 4.102,0 7.305,-1.5625 9.61,-4.6875 2.304,-3.164 3.457,-8.2031 3.457,-15.1172 0,-5.8984 -1.153,-10.4687 -3.457,-13.7109 -2.305,-3.2422 -5.547,-4.8633 -9.727,-4.8633 -4.14,0 -7.344,1.6211 -9.609,4.8633 -2.266,3.2031 -3.399,8.1836 -3.399,14.9414 z m 80.801,-1.1133 c 0,-9.8828 2.207,-17.7539 6.621,-23.6132 4.453,-5.8594 10.528,-8.7891 18.223,-8.7891 6.172,0 11.269,2.3047 15.293,6.9141 V 0 h 16.992 v 90 h -15.293 l -0.82,-6.7383 c -4.219,5.2735 -9.649,7.9102 -16.289,7.9102 -7.461,0 -13.457,-2.9297 -17.989,-8.7891 -4.492,-5.8984 -6.738,-14.082 -6.738,-24.5508 z m 16.934,1.2305 c 0,5.9375 1.035,10.4883 3.105,13.6523 2.071,3.1641 5.078,4.7461 9.024,4.7461 5.234,0 8.925,-2.207 11.074,-6.6211 V 45.8203 c -2.109,-4.4141 -5.762,-6.6211 -10.957,-6.6211 -8.164,0 -12.246,6.6211 -12.246,19.8633 z m 82.5,32.1094 c -9.297,0 -16.875,-2.8516 -22.735,-8.5547 -5.82,-5.7031 -8.73,-13.3008 -8.73,-22.793 v -1.6406 c 0,-6.3672 1.23,-12.0508 3.691,-17.0508 2.461,-5.039 5.938,-8.9062 10.43,-11.6016 4.531,-2.7343 9.688,-4.1015 15.469,-4.1015 8.672,0 15.488,2.7344 20.449,8.2031 5,5.4688 7.5,13.2227 7.5,23.2617 v 6.9141 h -40.371 c 0.547,4.1406 2.187,7.4609 4.922,9.9609 2.773,2.5 6.269,3.75 10.488,3.75 6.524,0 11.621,-2.3633 15.293,-7.0898 l 8.32,9.3164 c -2.539,3.5937 -5.976,6.4062 -10.312,8.4375 -4.336,1.9922 -9.141,2.9883 -14.414,2.9883 z m -1.934,-52.0313 c -3.359,0 -6.094,1.1328 -8.203,3.3985 -2.07,2.2656 -3.398,5.5078 -3.984,9.7265 h 23.554 V 50.918 c -0.078,-3.75 -1.093,-6.6407 -3.046,-8.6719 -1.954,-2.0703 -4.727,-3.1055 -8.321,-3.1055 z M 57.5742,178.887 c 0,9.765 -2.2265,17.597 -6.6797,23.496 -4.414,5.859 -10.3906,8.789 -17.9297,8.789 -6.4062,0 -11.582,-2.227 -15.5273,-6.68 v 29.883 H 0.503906 V 146.602 H 16.207 l 0.586,6.21 c 4.1015,-4.921 9.4531,-7.382 16.0547,-7.382 7.8125,0 13.8867,2.89 18.2226,8.672 4.3359,5.781 6.5039,13.75 6.5039,23.906 z m -16.9336,-1.231 c 0,-5.898 -1.0547,-10.449 -3.164,-13.652 -2.0704,-3.203 -5.0977,-4.805 -9.0821,-4.805 -5.3125,0 -8.9648,2.031 -10.957,6.094 v 25.957 c 2.0703,4.18 5.7617,6.27 11.0742,6.27 8.086,0 12.1289,-6.622 12.1289,-19.864 z M 103.746,162.48 c -2.305,-0.312 -4.3358,-0.468 -6.0937,-0.468 -6.4062,0 -10.6054,2.168 -12.5976,6.504 V 210 H 68.1211 v -63.398 h 15.9961 l 0.4687,7.558 c 3.3985,-5.82 8.1055,-8.73 14.1211,-8.73 1.875,0 3.633,0.254 5.273,0.761 z m 36.211,48.692 c -9.297,0 -16.875,-2.852 -22.734,-8.555 -5.821,-5.703 -8.731,-13.301 -8.731,-22.793 v -1.64 c 0,-6.368 1.231,-12.051 3.692,-17.051 2.461,-5.039 5.937,-8.906 10.429,-11.602 4.532,-2.734 9.688,-4.101 15.469,-4.101 8.672,0 15.488,2.734 20.449,8.203 5,5.469 7.5,13.222 7.5,23.262 v 6.914 H 125.66 c 0.547,4.14 2.188,7.461 4.922,9.961 2.773,2.5 6.27,3.75 10.488,3.75 6.524,0 11.621,-2.364 15.293,-7.09 l 8.321,9.316 c -2.539,3.594 -5.977,6.406 -10.313,8.438 -4.336,1.992 -9.141,2.988 -14.414,2.988 z m -1.934,-52.031 c -3.359,0 -6.093,1.132 -8.203,3.398 -2.07,2.266 -3.398,5.508 -3.984,9.727 h 23.555 v -1.348 c -0.079,-3.75 -1.094,-6.641 -3.047,-8.672 -1.953,-2.07 -4.727,-3.105 -8.321,-3.105 z m 72.012,33.339 c 0,-2.07 -1.035,-3.691 -3.105,-4.863 -2.032,-1.211 -5.313,-2.285 -9.844,-3.222 -15.078,-3.165 -22.617,-9.571 -22.617,-19.219 0,-5.625 2.324,-10.313 6.972,-14.063 4.688,-3.789 10.801,-5.683 18.34,-5.683 8.047,0 14.473,1.894 19.278,5.683 4.843,3.789 7.265,8.711 7.265,14.766 h -16.933 c 0,-2.422 -0.782,-4.414 -2.344,-5.977 -1.563,-1.601 -4.004,-2.402 -7.324,-2.402 -2.852,0 -5.059,0.645 -6.621,1.934 -1.563,1.289 -2.344,2.929 -2.344,4.921 0,1.875 0.879,3.399 2.637,4.571 1.796,1.133 4.804,2.129 9.023,2.988 4.219,0.82 7.773,1.758 10.664,2.813 8.945,3.281 13.418,8.964 13.418,17.05 0,5.782 -2.48,10.469 -7.441,14.063 -4.961,3.555 -11.368,5.332 -19.219,5.332 -5.313,0 -10.039,-0.938 -14.18,-2.813 -4.101,-1.914 -7.324,-4.511 -9.668,-7.793 -2.344,-3.32 -3.515,-6.894 -3.515,-10.722 h 16.054 c 0.157,3.008 1.27,5.312 3.34,6.914 2.07,1.601 4.844,2.402 8.32,2.402 3.243,0 5.684,-0.605 7.325,-1.816 1.679,-1.25 2.519,-2.871 2.519,-4.864 z m 56.602,18.692 c -9.297,0 -16.875,-2.852 -22.735,-8.555 -5.82,-5.703 -8.73,-13.301 -8.73,-22.793 v -1.64 c 0,-6.368 1.23,-12.051 3.691,-17.051 2.461,-5.039 5.938,-8.906 10.43,-11.602 4.531,-2.734 9.687,-4.101 15.469,-4.101 8.672,0 15.488,2.734 20.449,8.203 5,5.469 7.5,13.222 7.5,23.262 v 6.914 H 252.34 c 0.547,4.14 2.187,7.461 4.922,9.961 2.773,2.5 6.269,3.75 10.488,3.75 6.523,0 11.621,-2.364 15.293,-7.09 l 8.32,9.316 c -2.539,3.594 -5.976,6.406 -10.312,8.438 -4.336,1.992 -9.141,2.988 -14.414,2.988 z m -1.934,-52.031 c -3.359,0 -6.094,1.132 -8.203,3.398 -2.07,2.266 -3.398,5.508 -3.984,9.727 h 23.554 v -1.348 c -0.078,-3.75 -1.093,-6.641 -3.047,-8.672 -1.953,-2.07 -4.726,-3.105 -8.32,-3.105 z m 53.262,-12.539 0.527,7.324 c 4.531,-5.664 10.606,-8.496 18.223,-8.496 6.719,0 11.719,1.972 15,5.918 3.281,3.945 4.961,9.843 5.039,17.695 V 210 H 339.82 v -40.547 c 0,-3.594 -0.781,-6.191 -2.343,-7.793 -1.563,-1.64 -4.161,-2.461 -7.793,-2.461 -4.766,0 -8.34,2.031 -10.723,6.094 V 210 h -16.934 v -63.398 z m 78.047,50.918 c 3.125,0 5.664,-0.86 7.617,-2.579 1.953,-1.718 2.969,-4.003 3.047,-6.855 h 15.879 c -0.039,4.297 -1.211,8.242 -3.516,11.836 -2.305,3.555 -5.469,6.328 -9.492,8.32 -3.985,1.953 -8.399,2.93 -13.242,2.93 -9.063,0 -16.211,-2.871 -21.446,-8.613 -5.234,-5.782 -7.851,-13.75 -7.851,-23.907 v -1.113 c 0,-9.766 2.597,-17.559 7.793,-23.379 5.195,-5.82 12.324,-8.73 21.387,-8.73 7.929,0 14.277,2.265 19.042,6.797 4.805,4.492 7.247,10.488 7.325,17.988 h -15.879 c -0.078,-3.281 -1.094,-5.938 -3.047,-7.969 -1.953,-2.07 -4.531,-3.105 -7.734,-3.105 -3.946,0 -6.934,1.445 -8.965,4.336 -1.992,2.851 -2.989,7.5 -2.989,13.945 v 1.758 c 0,6.523 0.997,11.211 2.989,14.062 1.992,2.852 5.019,4.278 9.082,4.278 z m 6.152,12.128 -0.644,3.399 c 5.859,1.055 8.789,4.433 8.789,10.137 0,4.296 -1.797,7.695 -5.391,10.195 -3.555,2.5 -8.574,3.75 -15.059,3.75 l -0.41,-9.785 c 4.375,0 6.563,-1.582 6.563,-4.746 0,-1.641 -0.664,-2.774 -1.992,-3.399 -1.29,-0.586 -3.399,-0.976 -6.329,-1.172 l 1.817,-8.379 z M 468.961,210 c -0.781,-1.523 -1.348,-3.418 -1.699,-5.684 -4.102,4.571 -9.434,6.856 -15.996,6.856 -6.211,0 -11.368,-1.797 -15.469,-5.391 -4.063,-3.593 -6.094,-8.125 -6.094,-13.593 0,-6.719 2.481,-11.876 7.442,-15.469 5,-3.594 12.207,-5.41 21.621,-5.449 h 7.793 v -3.633 c 0,-2.93 -0.762,-5.274 -2.286,-7.032 -1.484,-1.757 -3.847,-2.636 -7.089,-2.636 -2.852,0 -5.098,0.683 -6.739,2.051 -1.601,1.367 -2.402,3.242 -2.402,5.625 h -16.934 c 0,-3.672 1.133,-7.071 3.399,-10.196 2.265,-3.125 5.469,-5.566 9.609,-7.324 4.141,-1.797 8.789,-2.695 13.945,-2.695 7.813,0 14.004,1.972 18.575,5.918 4.609,3.906 6.914,9.414 6.914,16.523 v 27.481 c 0.039,6.015 0.879,10.566 2.519,13.652 V 210 Z m -14.004,-11.777 c 2.5,0 4.805,-0.547 6.914,-1.641 2.109,-1.133 3.672,-2.637 4.688,-4.512 v -10.898 h -6.329 c -8.476,0 -12.988,2.93 -13.535,8.789 l -0.058,0.996 c 0,2.109 0.742,3.848 2.226,5.215 1.485,1.367 3.516,2.051 6.094,2.051 z"
     fill="#cfa772"
     id="path2" />
  <text
     xml:space="preserve"
     style="font-style:normal;font-weight:normal;font-size:29.3333px;line-height:1.25;font-family:sans-serif;fill:#000000;fill-opacity:1;stroke:none"
     x="0.34962654"
     y="263.82666"
     id="text2"><tspan
       sodipodi:role="line"
       id="tspan2"
       x="0.34962654"
       y="263.82666"
       style="font-size:29.3333px;fill:#4d4d4d">Registre aqui sua presença em eventos </tspan><tspan
       sodipodi:role="line"
       x="0.34962654"
       y="300.49329"
       id="tspan3"
       style="font-size:29.3333px;fill:#4d4d4d">do Telessaúde</tspan></text>
</svg>
